<?xml version="1.0" encoding="UTF-8"?>
<svg id="SVGDoc" width="306" height="594" xmlns="http://www.w3.org/2000/svg" version="1.1" xmlns:xlink="http://www.w3.org/1999/xlink" xmlns:avocode="https://avocode.com/" viewBox="0 0 306 594"><defs></defs><desc>Generated with Avocode.</desc><g><g><title>&amp;lt;Rectangle&amp;gt;</title><path d="M0,594v0h306v0v-594v0h-306v0z" fill="#66ccce" fill-opacity="1"></path></g><g><title>&amp;lt;Rectangle&amp;gt;</title><path d="M0,594v0h306v0v-280.837v0h-306v0z" fill="#265476" fill-opacity="1"></path></g><g><title>&amp;lt;Path&amp;gt;</title><path d="M235.2491,35.4844c0.922,0 1.631,0.717 1.631,1.631c0,0.922 -0.709,1.639 -1.631,1.639c-0.922,0 -1.631,-0.717 -1.631,-1.639c0,-0.914 0.709,-1.631 1.631,-1.631zM235.2491,35.8174c-0.726,0 -1.281,0.555 -1.281,1.298c0,0.751 0.555,1.306 1.281,1.306c0.726,0 1.281,-0.555 1.281,-1.306c0,-0.743 -0.555,-1.298 -1.281,-1.298zM234.6341,38.0114c-0.034,0 -0.06,-0.017 -0.06,-0.06v-1.69c0,-0.043 0.026,-0.06 0.06,-0.06h0.709c0.418,0 0.666,0.196 0.666,0.555c0,0.256 -0.128,0.427 -0.342,0.512l0.359,0.683c0.017,0.035 0,0.06 -0.043,0.06h-0.307c-0.034,0 -0.06,-0.017 -0.077,-0.06l-0.333,-0.631h-0.248c-0.025,0 -0.034,0.017 -0.034,0.034v0.597c0,0.043 -0.026,0.06 -0.06,0.06zM235.3431,36.5514h-0.325c-0.025,0 -0.034,0.009 -0.034,0.034v0.342c0,0.025 0.009,0.034 0.034,0.034h0.325c0.179,0 0.273,-0.06 0.273,-0.205c0,-0.137 -0.094,-0.205 -0.273,-0.205z" fill="#ffffff" fill-opacity="1"></path></g><g><title>&amp;lt;Path&amp;gt;</title><path d="M77.3302,35.7659c0.035,-0.106 0.088,-0.176 0.193,-0.176h1.471c0.106,0 0.176,0.07 0.193,0.176l2.523,11.564c0.018,0.105 -0.035,0.175 -0.14,0.175h-1.489c-0.123,0 -0.175,-0.07 -0.193,-0.175l-0.473,-2.401h-2.365l-0.473,2.401c-0.018,0.105 -0.071,0.175 -0.193,0.175h-1.49c-0.105,0 -0.157,-0.07 -0.14,-0.175zM79.1172,43.3519l-0.841,-4.433h-0.052l-0.877,4.433zM85.7752,47.5049c-0.105,0 -0.175,-0.07 -0.175,-0.175v-9.935c0,-0.07 -0.035,-0.105 -0.105,-0.105h-1.822c-0.105,0 -0.176,-0.07 -0.176,-0.175v-1.349c0,-0.106 0.071,-0.176 0.176,-0.176h5.729c0.105,0 0.175,0.07 0.175,0.176v1.349c0,0.105 -0.07,0.175 -0.175,0.175h-1.822c-0.07,0 -0.105,0.035 -0.105,0.105v9.935c0,0.105 -0.07,0.175 -0.175,0.175zM92.8542,35.7659c0,-0.106 0.07,-0.176 0.175,-0.176h1.525c0.105,0 0.175,0.07 0.175,0.176v4.695c0,0.07 0.035,0.106 0.105,0.106h2.015c0.07,0 0.105,-0.036 0.105,-0.106v-4.695c0,-0.106 0.07,-0.176 0.175,-0.176h1.525c0.105,0 0.175,0.07 0.175,0.176v11.564c0,0.105 -0.07,0.175 -0.175,0.175h-1.525c-0.105,0 -0.175,-0.07 -0.175,-0.175v-4.959c0,-0.07 -0.035,-0.105 -0.105,-0.105h-2.015c-0.07,0 -0.105,0.035 -0.105,0.105v4.959c0,0.105 -0.07,0.175 -0.175,0.175h-1.525c-0.105,0 -0.175,-0.07 -0.175,-0.175zM103.0522,35.7659c0,-0.106 0.07,-0.176 0.175,-0.176h1.524c0.105,0 0.175,0.07 0.175,0.176v9.934c0,0.07 0.036,0.105 0.106,0.105h3.083c0.106,0 0.176,0.07 0.176,0.176v1.349c0,0.105 -0.07,0.175 -0.176,0.175h-4.888c-0.105,0 -0.175,-0.07 -0.175,-0.175zM110.7962,35.7659c0,-0.106 0.07,-0.176 0.175,-0.176h4.889c0.105,0 0.175,0.07 0.175,0.176v1.349c0,0.105 -0.07,0.175 -0.175,0.175h-3.084c-0.07,0 -0.105,0.035 -0.105,0.105v3.136c0,0.071 0.035,0.106 0.105,0.106h2.663c0.106,0 0.176,0.07 0.176,0.175v1.349c0,0.105 -0.07,0.175 -0.176,0.175h-2.663c-0.07,0 -0.105,0.035 -0.105,0.105v3.259c0,0.07 0.035,0.105 0.105,0.105h3.084c0.105,0 0.175,0.07 0.175,0.176v1.349c0,0.105 -0.07,0.175 -0.175,0.175h-4.889c-0.105,0 -0.175,-0.07 -0.175,-0.175zM121.1692,47.5049c-0.105,0 -0.175,-0.07 -0.175,-0.175v-9.935c0,-0.07 -0.035,-0.105 -0.105,-0.105h-1.823c-0.105,0 -0.175,-0.07 -0.175,-0.175v-1.349c0,-0.106 0.07,-0.176 0.175,-0.176h5.73c0.105,0 0.175,0.07 0.175,0.176v1.349c0,0.105 -0.07,0.175 -0.175,0.175h-1.822c-0.07,0 -0.105,0.035 -0.105,0.105v9.935c0,0.105 -0.07,0.175 -0.176,0.175zM128.1602,35.7659c0,-0.106 0.07,-0.176 0.175,-0.176h1.525c0.105,0 0.175,0.07 0.175,0.176v11.564c0,0.105 -0.07,0.175 -0.175,0.175h-1.525c-0.105,0 -0.175,-0.07 -0.175,-0.175zM134.1002,37.2549c0.368,-1.139 1.244,-1.822 2.698,-1.822c1.7,0 2.769,0.876 2.874,2.856c0.017,0.105 -0.018,0.192 -0.123,0.21l-1.419,0.245c-0.105,0.018 -0.193,-0.035 -0.193,-0.157c-0.052,-1.017 -0.403,-1.455 -1.086,-1.455c-0.526,0 -0.806,0.228 -0.946,0.666c-0.088,0.28 -0.123,0.526 -0.123,3.75c0,3.224 0.035,3.469 0.123,3.749c0.14,0.438 0.42,0.666 0.946,0.666c0.683,0 1.034,-0.438 1.086,-1.454c0,-0.123 0.088,-0.175 0.193,-0.158l1.419,0.245c0.105,0.018 0.14,0.106 0.123,0.211c-0.105,1.98 -1.174,2.856 -2.874,2.856c-1.454,0 -2.33,-0.684 -2.698,-1.822c-0.158,-0.491 -0.228,-0.982 -0.228,-4.293c0,-3.312 0.07,-3.802 0.228,-4.293zM147.5252,35.7659c0,-0.106 0.07,-0.176 0.175,-0.176h2.611c2.137,0 3.083,0.964 3.083,3.084c0,1.472 -0.508,2.19 -1.384,2.576v0.035c0.894,0.263 1.525,1.139 1.525,2.716c0,2.646 -1.157,3.504 -3.47,3.504h-2.365c-0.105,0 -0.175,-0.07 -0.175,-0.175zM150.1352,40.5669c1.034,0 1.385,-0.316 1.385,-1.63c0,-1.314 -0.351,-1.647 -1.385,-1.647h-0.63c-0.07,0 -0.105,0.035 -0.105,0.105v3.066c0,0.07 0.035,0.106 0.105,0.106zM150.1352,45.8049c1.122,0 1.507,-0.42 1.507,-1.822c0,-1.402 -0.385,-1.805 -1.507,-1.805h-0.63c-0.07,0 -0.105,0.035 -0.105,0.106v3.416c0,0.07 0.035,0.105 0.105,0.105zM161.8922,47.5049c-0.105,0 -0.157,-0.035 -0.192,-0.123l-1.455,-4.748h-0.893c-0.07,0 -0.105,0.035 -0.105,0.105v4.591c0,0.105 -0.071,0.175 -0.176,0.175h-1.524c-0.105,0 -0.175,-0.07 -0.175,-0.175v-11.564c0,-0.106 0.07,-0.176 0.175,-0.176h2.4c2.12,0 3.4,0.929 3.4,3.54c0,1.559 -0.526,2.54 -1.42,3.048l1.682,5.152c0.035,0.087 0,0.175 -0.087,0.175zM159.9652,37.2899h-0.613c-0.07,0 -0.105,0.035 -0.105,0.105v3.469c0,0.07 0.035,0.106 0.105,0.106h0.613c1.051,0 1.507,-0.421 1.507,-1.84c0,-1.402 -0.456,-1.84 -1.507,-1.84zM167.3762,35.7659c0,-0.106 0.071,-0.176 0.176,-0.176h4.888c0.105,0 0.175,0.07 0.175,0.176v1.349c0,0.105 -0.07,0.175 -0.175,0.175h-3.084c-0.07,0 -0.105,0.035 -0.105,0.105v3.136c0,0.071 0.035,0.106 0.105,0.106h2.664c0.105,0 0.175,0.07 0.175,0.175v1.349c0,0.105 -0.07,0.175 -0.175,0.175h-2.664c-0.07,0 -0.105,0.035 -0.105,0.105v3.259c0,0.07 0.035,0.105 0.105,0.105h3.084c0.105,0 0.175,0.07 0.175,0.176v1.349c0,0.105 -0.07,0.175 -0.175,0.175h-4.888c-0.105,0 -0.176,-0.07 -0.176,-0.175zM181.9902,47.5049c-0.106,0 -0.158,-0.07 -0.176,-0.175l-1.209,-7.657h-0.035l-1.261,7.657c-0.018,0.105 -0.07,0.175 -0.176,0.175h-1.314c-0.105,0 -0.157,-0.07 -0.175,-0.175l-1.84,-11.564c-0.017,-0.106 0.018,-0.176 0.158,-0.176h1.507c0.105,0 0.175,0.053 0.193,0.176l0.858,7.762h0.053l1.279,-7.762c0.017,-0.123 0.087,-0.176 0.193,-0.176h1.033c0.106,0 0.176,0.053 0.193,0.176l1.279,7.762h0.053l0.911,-7.762c0.017,-0.123 0.088,-0.176 0.193,-0.176h1.454c0.14,0 0.175,0.07 0.158,0.176l-1.858,11.564c-0.017,0.105 -0.07,0.175 -0.175,0.175zM189.0162,35.7659c0,-0.106 0.07,-0.176 0.175,-0.176h1.524c0.106,0 0.176,0.07 0.176,0.176v11.564c0,0.105 -0.07,0.175 -0.176,0.175h-1.524c-0.105,0 -0.175,-0.07 -0.175,-0.175zM195.2012,35.7659c0,-0.106 0.07,-0.176 0.175,-0.176h1.857c0.141,0 0.211,0.053 0.246,0.176l2.207,8.235h0.088v-8.235c0,-0.106 0.07,-0.176 0.175,-0.176h1.297c0.105,0 0.175,0.07 0.175,0.176v11.564c0,0.105 -0.07,0.175 -0.175,0.175h-1.735c-0.14,0 -0.21,-0.053 -0.245,-0.175l-2.313,-8.235h-0.105v8.235c0,0.105 -0.07,0.175 -0.175,0.175h-1.297c-0.105,0 -0.175,-0.07 -0.175,-0.175zM205.7492,37.2899c0.386,-1.174 1.349,-1.857 2.821,-1.857c1.717,0 2.768,0.911 2.961,2.786c0.018,0.105 -0.052,0.192 -0.14,0.21l-1.419,0.245c-0.105,0.018 -0.175,-0.035 -0.193,-0.14c-0.088,-0.929 -0.491,-1.402 -1.191,-1.402c-0.509,0 -0.912,0.263 -1.034,0.666c-0.105,0.333 -0.123,0.473 -0.123,3.75c0,3.276 0.018,3.416 0.123,3.749c0.122,0.403 0.56,0.666 1.051,0.666c0.508,0 0.946,-0.263 1.069,-0.666c0.087,-0.298 0.123,-0.473 0.123,-2.68c0,-0.071 -0.036,-0.106 -0.106,-0.106h-0.928c-0.105,0 -0.175,-0.07 -0.175,-0.175v-1.296c0,-0.106 0.07,-0.176 0.175,-0.176h2.663c0.105,0 0.175,0.07 0.175,0.176v0.525c0,3.294 -0.052,3.715 -0.228,4.24c-0.385,1.174 -1.349,1.858 -2.803,1.858c-1.472,0 -2.435,-0.684 -2.821,-1.858c-0.175,-0.525 -0.228,-0.946 -0.228,-4.257c0,-3.312 0.053,-3.732 0.228,-4.258zM226.8182,37.2899c0.385,-1.174 1.349,-1.857 2.821,-1.857c1.454,0 2.418,0.683 2.803,1.857c0.175,0.526 0.175,4.919 0,5.445c-0.385,1.173 -1.349,1.857 -2.803,1.857c-1.472,0 -2.436,-0.684 -2.821,-1.857c-0.175,-0.526 -0.175,-4.919 0,-5.445zM230.6382,37.7979c-0.123,-0.403 -0.509,-0.666 -0.999,-0.666c-0.508,0 -0.894,0.263 -1.016,0.666c-0.106,0.333 -0.106,4.095 0,4.428c0.122,0.403 0.508,0.666 1.016,0.666c0.49,0 0.876,-0.263 0.999,-0.666c0.105,-0.333 0.105,-4.095 0,-4.428zM219.2952,37.2549c0.368,-1.139 1.244,-1.822 2.698,-1.822c1.7,0 2.768,0.876 2.874,2.856c0.017,0.105 -0.018,0.192 -0.123,0.21l-1.419,0.245c-0.106,0.018 -0.193,-0.035 -0.193,-0.157c-0.053,-1.017 -0.403,-1.455 -1.086,-1.455c-0.526,0 -0.806,0.228 -0.947,0.666c-0.087,0.28 -0.122,0.526 -0.122,3.75c0,3.224 0.035,3.469 0.122,3.749c0.141,0.438 0.421,0.666 0.947,0.666c0.683,0 1.033,-0.438 1.086,-1.454c0,-0.123 0.087,-0.175 0.193,-0.158l1.419,0.245c0.105,0.018 0.14,0.106 0.123,0.211c-0.106,1.98 -1.174,2.856 -2.874,2.856c-1.454,0 -2.33,-0.684 -2.698,-1.822c-0.158,-0.491 -0.228,-0.982 -0.228,-4.293c0,-3.312 0.07,-3.802 0.228,-4.293zM103.0522,55.1969c0,-0.063 0.042,-0.105 0.104,-0.105h1.111c0.084,0 0.126,0.032 0.147,0.105l1.321,4.926h0.052v-4.926c0,-0.063 0.042,-0.105 0.105,-0.105h0.775c0.063,0 0.105,0.042 0.105,0.105v6.917c0,0.063 -0.042,0.105 -0.105,0.105h-1.037c-0.084,0 -0.126,-0.032 -0.147,-0.105l-1.383,-4.926h-0.063v4.926c0,0.063 -0.042,0.105 -0.105,0.105h-0.776c-0.062,0 -0.104,-0.042 -0.104,-0.105zM109.0682,58.6559c0,-1.981 0.031,-2.233 0.136,-2.547c0.23,-0.702 0.807,-1.111 1.687,-1.111c0.87,0 1.446,0.409 1.677,1.111c0.105,0.314 0.136,0.566 0.136,2.547c0,1.98 -0.031,2.232 -0.136,2.546c-0.231,0.702 -0.807,1.111 -1.677,1.111c-0.88,0 -1.457,-0.409 -1.687,-1.111c-0.105,-0.314 -0.136,-0.566 -0.136,-2.546zM111.5622,58.6559c0,-1.96 -0.011,-2.044 -0.073,-2.243c-0.074,-0.241 -0.304,-0.398 -0.598,-0.398c-0.304,0 -0.534,0.157 -0.608,0.398c-0.063,0.199 -0.073,0.283 -0.073,2.243c0,1.959 0.01,2.043 0.073,2.242c0.074,0.241 0.304,0.399 0.608,0.399c0.294,0 0.524,-0.158 0.598,-0.399c0.062,-0.199 0.073,-0.283 0.073,-2.242zM115.0002,55.1969c0,-0.063 0.042,-0.105 0.104,-0.105h1.111c0.084,0 0.126,0.032 0.147,0.105l1.321,4.926h0.052v-4.926c0,-0.063 0.042,-0.105 0.105,-0.105h0.775c0.063,0 0.105,0.042 0.105,0.105v6.917c0,0.063 -0.042,0.105 -0.105,0.105h-1.037c-0.084,0 -0.126,-0.032 -0.147,-0.105l-1.383,-4.926h-0.063v4.926c0,0.063 -0.042,0.105 -0.105,0.105h-0.776c-0.062,0 -0.104,-0.042 -0.104,-0.105zM121.0782,59.0429c0,-0.063 0.042,-0.105 0.105,-0.105h2.767c0.063,0 0.105,0.042 0.105,0.105v0.786c0,0.063 -0.042,0.105 -0.105,0.105h-2.767c-0.063,0 -0.105,-0.042 -0.105,-0.105zM127.3882,55.1969c0.021,-0.063 0.052,-0.105 0.115,-0.105h0.881c0.062,0 0.104,0.042 0.115,0.105l1.509,6.917c0.01,0.063 -0.021,0.105 -0.084,0.105h-0.891c-0.073,0 -0.104,-0.042 -0.115,-0.105l-0.283,-1.436h-1.415l-0.283,1.436c-0.01,0.063 -0.042,0.105 -0.115,0.105h-0.891c-0.063,0 -0.094,-0.042 -0.084,-0.105zM128.4572,59.7349l-0.503,-2.652h-0.032l-0.524,2.652zM132.0522,55.1969c0,-0.063 0.042,-0.105 0.105,-0.105h0.911c0.063,0 0.105,0.042 0.105,0.105v5.942c0,0.042 0.021,0.063 0.063,0.063h1.845c0.063,0 0.104,0.042 0.104,0.105v0.807c0,0.063 -0.041,0.105 -0.104,0.105h-2.924c-0.063,0 -0.105,-0.042 -0.105,-0.105zM137.0722,56.0879c0.22,-0.681 0.744,-1.09 1.614,-1.09c1.017,0 1.656,0.524 1.719,1.708c0.01,0.063 -0.011,0.116 -0.073,0.126l-0.849,0.147c-0.063,0.01 -0.116,-0.021 -0.116,-0.095c-0.031,-0.607 -0.241,-0.869 -0.649,-0.869c-0.315,0 -0.482,0.136 -0.566,0.398c-0.053,0.167 -0.074,0.314 -0.074,2.243c0,1.928 0.021,2.075 0.074,2.242c0.084,0.262 0.251,0.399 0.566,0.399c0.408,0 0.618,-0.262 0.649,-0.87c0,-0.074 0.053,-0.105 0.116,-0.095l0.849,0.147c0.062,0.011 0.083,0.063 0.073,0.126c-0.063,1.184 -0.702,1.708 -1.719,1.708c-0.87,0 -1.394,-0.409 -1.614,-1.09c-0.094,-0.293 -0.136,-0.587 -0.136,-2.567c0,-1.981 0.042,-2.275 0.136,-2.568zM142.3552,58.6559c0,-1.981 0.031,-2.233 0.136,-2.547c0.23,-0.702 0.807,-1.111 1.687,-1.111c0.87,0 1.446,0.409 1.677,1.111c0.105,0.314 0.136,0.566 0.136,2.547c0,1.98 -0.031,2.232 -0.136,2.546c-0.231,0.702 -0.807,1.111 -1.677,1.111c-0.88,0 -1.457,-0.409 -1.687,-1.111c-0.105,-0.314 -0.136,-0.566 -0.136,-2.546zM144.8492,58.6559c0,-1.96 -0.011,-2.044 -0.074,-2.243c-0.073,-0.241 -0.304,-0.398 -0.597,-0.398c-0.304,0 -0.534,0.157 -0.608,0.398c-0.063,0.199 -0.073,0.283 -0.073,2.243c0,1.959 0.01,2.043 0.073,2.242c0.074,0.241 0.304,0.399 0.608,0.399c0.293,0 0.524,-0.158 0.597,-0.399c0.063,-0.199 0.074,-0.283 0.074,-2.242zM148.3392,55.1969c0,-0.063 0.042,-0.105 0.105,-0.105h0.911c0.063,0 0.105,0.042 0.105,0.105v2.809c0,0.042 0.021,0.063 0.063,0.063h1.205c0.042,0 0.063,-0.021 0.063,-0.063v-2.809c0,-0.063 0.042,-0.105 0.105,-0.105h0.912c0.063,0 0.105,0.042 0.105,0.105v6.917c0,0.063 -0.042,0.105 -0.105,0.105h-0.912c-0.063,0 -0.105,-0.042 -0.105,-0.105v-2.966c0,-0.042 -0.021,-0.063 -0.063,-0.063h-1.205c-0.042,0 -0.063,0.021 -0.063,0.063v2.966c0,0.063 -0.042,0.105 -0.105,0.105h-0.911c-0.063,0 -0.105,-0.042 -0.105,-0.105zM154.2602,58.6559c0,-1.981 0.032,-2.233 0.137,-2.547c0.23,-0.702 0.807,-1.111 1.687,-1.111c0.87,0 1.446,0.409 1.677,1.111c0.105,0.314 0.136,0.566 0.136,2.547c0,1.98 -0.031,2.232 -0.136,2.546c-0.231,0.702 -0.807,1.111 -1.677,1.111c-0.88,0 -1.457,-0.409 -1.687,-1.111c-0.105,-0.314 -0.137,-0.566 -0.137,-2.546zM156.7552,58.6559c0,-1.96 -0.011,-2.044 -0.074,-2.243c-0.073,-0.241 -0.304,-0.398 -0.597,-0.398c-0.304,0 -0.534,0.157 -0.608,0.398c-0.063,0.199 -0.073,0.283 -0.073,2.243c0,1.959 0.01,2.043 0.073,2.242c0.074,0.241 0.304,0.399 0.608,0.399c0.293,0 0.524,-0.158 0.597,-0.399c0.063,-0.199 0.074,-0.283 0.074,-2.242zM160.2452,55.1969c0,-0.063 0.042,-0.105 0.105,-0.105h0.912c0.062,0 0.104,0.042 0.104,0.105v5.942c0,0.042 0.021,0.063 0.063,0.063h1.845c0.063,0 0.104,0.042 0.104,0.105v0.807c0,0.063 -0.041,0.105 -0.104,0.105h-2.924c-0.063,0 -0.105,-0.042 -0.105,-0.105zM165.2972,55.1969c0,-0.063 0.041,-0.105 0.104,-0.105h0.912c0.063,0 0.105,0.042 0.105,0.105v6.917c0,0.063 -0.042,0.105 -0.105,0.105h-0.912c-0.063,0 -0.104,-0.042 -0.104,-0.105zM168.9022,56.0879c0.22,-0.681 0.744,-1.09 1.614,-1.09c1.016,0 1.656,0.524 1.719,1.708c0.01,0.063 -0.011,0.116 -0.074,0.126l-0.849,0.147c-0.062,0.01 -0.115,-0.021 -0.115,-0.095c-0.031,-0.607 -0.241,-0.869 -0.65,-0.869c-0.314,0 -0.482,0.136 -0.566,0.398c-0.052,0.167 -0.073,0.314 -0.073,2.243c0,1.928 0.021,2.075 0.073,2.242c0.084,0.262 0.252,0.399 0.566,0.399c0.409,0 0.619,-0.262 0.65,-0.87c0,-0.074 0.053,-0.105 0.115,-0.095l0.849,0.147c0.063,0.011 0.084,0.063 0.074,0.126c-0.063,1.184 -0.703,1.708 -1.719,1.708c-0.87,0 -1.394,-0.409 -1.614,-1.09c-0.094,-0.293 -0.136,-0.587 -0.136,-2.567c0,-1.981 0.042,-2.275 0.136,-2.568zM177.7062,55.1969c0,-0.063 0.041,-0.105 0.104,-0.105h1.562c1.279,0 1.844,0.577 1.844,1.845c0,0.88 -0.303,1.31 -0.827,1.54v0.021c0.534,0.158 0.911,0.682 0.911,1.625c0,1.582 -0.691,2.096 -2.075,2.096h-1.415c-0.063,0 -0.104,-0.042 -0.104,-0.105zM179.2672,58.0689c0.618,0 0.828,-0.189 0.828,-0.975c0,-0.786 -0.21,-0.985 -0.828,-0.985h-0.377c-0.042,0 -0.063,0.021 -0.063,0.063v1.834c0,0.042 0.021,0.063 0.063,0.063zM179.2672,61.2019c0.671,0 0.901,-0.251 0.901,-1.09c0,-0.838 -0.23,-1.079 -0.901,-1.079h-0.377c-0.042,0 -0.063,0.021 -0.063,0.063v2.043c0,0.042 0.021,0.063 0.063,0.063zM186.2472,62.2189c-0.063,0 -0.094,-0.021 -0.115,-0.074l-0.87,-2.84h-0.534c-0.042,0 -0.063,0.021 -0.063,0.063v2.746c0,0.063 -0.042,0.105 -0.105,0.105h-0.912c-0.063,0 -0.105,-0.042 -0.105,-0.105v-6.917c0,-0.063 0.042,-0.105 0.105,-0.105h1.436c1.268,0 2.033,0.556 2.033,2.117c0,0.933 -0.314,1.52 -0.849,1.824l1.006,3.081c0.021,0.052 0,0.105 -0.052,0.105zM185.0942,56.1089h-0.366c-0.042,0 -0.063,0.021 -0.063,0.063v2.075c0,0.042 0.021,0.063 0.063,0.063h0.366c0.629,0 0.902,-0.252 0.902,-1.101c0,-0.838 -0.273,-1.1 -0.902,-1.1zM189.4752,55.1969c0,-0.063 0.042,-0.105 0.105,-0.105h2.924c0.063,0 0.105,0.042 0.105,0.105v0.807c0,0.063 -0.042,0.105 -0.105,0.105h-1.844c-0.042,0 -0.063,0.021 -0.063,0.063v1.876c0,0.042 0.021,0.063 0.063,0.063h1.593c0.062,0 0.104,0.041 0.104,0.104v0.807c0,0.063 -0.042,0.105 -0.104,0.105h-1.593c-0.042,0 -0.063,0.021 -0.063,0.063v1.949c0,0.042 0.021,0.063 0.063,0.063h1.844c0.063,0 0.105,0.042 0.105,0.105v0.807c0,0.063 -0.042,0.105 -0.105,0.105h-2.924c-0.063,0 -0.105,-0.042 -0.105,-0.105zM198.1642,62.2189c-0.063,0 -0.095,-0.042 -0.105,-0.105l-0.723,-4.58h-0.021l-0.755,4.58c-0.01,0.063 -0.042,0.105 -0.105,0.105h-0.786c-0.062,0 -0.094,-0.042 -0.104,-0.105l-1.101,-6.917c-0.01,-0.063 0.011,-0.105 0.094,-0.105h0.902c0.063,0 0.105,0.032 0.115,0.105l0.514,4.643h0.031l0.765,-4.643c0.011,-0.073 0.052,-0.105 0.115,-0.105h0.619c0.063,0 0.104,0.032 0.115,0.105l0.765,4.643h0.031l0.545,-4.643c0.011,-0.073 0.053,-0.105 0.116,-0.105h0.87c0.083,0 0.104,0.042 0.094,0.105l-1.111,6.917c-0.01,0.063 -0.042,0.105 -0.105,0.105zM201.9162,60.4479c0,-0.063 0.021,-0.105 0.084,-0.116l0.88,-0.146c0.074,-0.011 0.116,0.031 0.116,0.094c0.031,0.755 0.251,1.048 0.733,1.048c0.451,0 0.671,-0.241 0.671,-1.017c0,-0.765 -0.147,-1.016 -0.702,-1.236l-0.43,-0.168c-0.985,-0.388 -1.279,-0.901 -1.279,-2.012c0,-1.226 0.556,-1.897 1.73,-1.897c1.173,0 1.687,0.629 1.75,1.74c0,0.063 -0.032,0.094 -0.094,0.115l-0.839,0.126c-0.063,0.01 -0.115,-0.021 -0.115,-0.084c-0.021,-0.587 -0.21,-0.912 -0.671,-0.912c-0.44,0 -0.65,0.273 -0.65,0.86c0,0.66 0.126,0.859 0.692,1.079l0.43,0.168c0.932,0.366 1.299,0.87 1.299,2.085c0,1.404 -0.471,2.138 -1.823,2.138c-1.153,0 -1.75,-0.618 -1.782,-1.865zM232.1082,46.1919c0.098,0 0.163,0.054 0.163,0.135v1.173c0,0.08 -0.065,0.134 -0.163,0.134h-4.956c-0.098,0 -0.163,-0.054 -0.163,-0.134v-1.173c0,-0.081 0.065,-0.135 0.163,-0.135z" fill="#ffffff" fill-opacity="1"></path></g><g><title>&amp;lt;Path&amp;gt;</title><path d="M297,383.4366c0,24.552 -19.903,44.455 -44.455,44.455c-24.551,0 -44.454,-19.903 -44.454,-44.455c0,-24.552 19.903,-44.455 44.454,-44.455c24.552,0 44.455,19.903 44.455,44.455z" fill="#265476" fill-opacity="1"></path></g><g><title>&amp;lt;Path&amp;gt;</title><path d="M128.5376,539.3955c2.584,0 4.679,2.094 4.679,4.68c0,2.583 -2.093,4.679 -4.679,4.679c-2.584,0 -4.679,-2.093 -4.679,-4.679c0,-2.584 2.093,-4.68 4.679,-4.68zM128.5376,547.1125c1.679,0 3.038,-1.359 3.037,-3.037c0,-1.678 -1.359,-3.037 -3.037,-3.037c-1.678,0 -3.037,1.359 -3.037,3.037c0,1.678 1.358,3.037 3.037,3.037z" fill="#66ccce" fill-opacity="1"></path></g><g><title>&amp;lt;Path&amp;gt;</title><path d="M132.2942,535.0178c3.433,0.158 5.151,2.099 5.301,5.301c0.075,1.679 0.079,5.834 0,7.513c-0.124,2.712 -1.4,4.221 -3.089,4.877c-1.242,0.481 -2.455,0.479 -5.969,0.479c-3.424,0 -5.822,0.23 -7.582,-1.53c-1.728,-1.727 -1.53,-4.035 -1.53,-7.583c0,-3.465 -0.224,-5.829 1.53,-7.582c1.049,-1.05 2.351,-1.406 3.826,-1.475c1.68,-0.075 5.835,-0.079 7.513,0zM134.9502,550.4978c1.13,-1.135 1.059,-2.668 1.059,-6.423c0,-2.433 -0.01,-2.722 -0.053,-3.683c-0.191,-4.213 -3.368,-3.789 -7.417,-3.789l-0.034,-0.023c-2.437,0 -2.722,0.011 -3.69,0.046c-4.214,0.215 -3.783,3.239 -3.783,7.437c0,3.103 -0.232,5.149 1.049,6.424c1.111,1.114 2.635,1.058 6.434,1.058c3.69,0 5.285,0.103 6.435,-1.047z" fill="#66ccce" fill-opacity="1"></path></g><g><title>&amp;lt;Path&amp;gt;</title><path d="M133.4024,538.1178c0.604,0 1.093,0.49 1.093,1.093c0,0.604 -0.489,1.094 -1.093,1.094c-0.604,0 -1.093,-0.49 -1.093,-1.094c0,-0.603 0.489,-1.093 1.093,-1.093z" fill="#66ccce" fill-opacity="1"></path></g><g><title>&amp;lt;Path&amp;gt;</title><path d="M164.3266,537.8104c-0.752,0.33 -1.553,0.548 -2.388,0.655c0.859,-0.513 1.515,-1.32 1.823,-2.291c-0.801,0.477 -1.685,0.815 -2.628,1.003c-0.761,-0.81 -1.845,-1.312 -3.028,-1.312c-2.294,0 -4.141,1.863 -4.141,4.146c0,0.329 0.027,0.645 0.096,0.945c-3.446,-0.168 -6.495,-1.819 -8.543,-4.335c-0.358,0.62 -0.568,1.331 -0.568,2.095c0,1.435 0.739,2.708 1.841,3.444c-0.666,-0.012 -1.319,-0.206 -1.872,-0.51v0.045c0,2.015 1.436,3.688 3.32,4.073c-0.337,0.092 -0.705,0.136 -1.086,0.136c-0.266,0 -0.534,-0.015 -0.785,-0.07c0.537,1.641 2.061,2.848 3.873,2.887c-1.41,1.103 -3.201,1.768 -5.139,1.768c-0.34,0 -0.666,-0.016 -0.992,-0.057c1.836,1.184 4.012,1.86 6.358,1.86c7.627,0 11.797,-6.318 11.797,-11.794c0,-0.184 -0.006,-0.361 -0.015,-0.536c0.822,-0.584 1.513,-1.313 2.077,-2.152z" fill="#66ccce" fill-opacity="1"></path></g><g><title>&amp;lt;Path&amp;gt;</title><path d="M186.5842,544.079c0,-5.124 -4.153,-9.277 -9.277,-9.277c-5.124,0 -9.277,4.153 -9.277,9.277c0,5.124 4.153,9.277 9.277,9.277c0.054,0 0.109,0 0.163,-0.004v-7.218v0h-1.993v0v-2.323v0h1.993v0v-1.711c0,-1.982 1.21,-3.062 2.979,-3.062c0.848,0 1.576,0.062 1.786,0.091v2.073v0h-1.217c-0.96,0 -1.149,0.456 -1.149,1.127v1.478v0h2.301v0l-0.301,2.323v0h-2v0v6.867c3.878,-1.112 6.715,-4.682 6.715,-8.918z" fill="#66ccce" fill-opacity="1"></path></g><g><title>&amp;lt;Path&amp;gt;</title><path d="M111.9522,191.254c0.005,-0.182 -0.061,-0.366 -0.094,-0.548c-0.165,0.074 -0.34,0.131 -0.492,0.225c-0.951,0.594 -1.851,1.29 -2.856,1.768c-1.029,0.49 -2.086,-0.005 -2.442,-1.111c-0.3,-0.93 -0.392,-1.927 -0.582,-2.893c-0.035,-0.182 -0.097,-0.359 -0.146,-0.538c-0.166,0.132 -0.381,0.232 -0.49,0.401c-0.431,0.661 -0.812,1.355 -1.242,2.017c-0.609,0.938 -1.217,1.88 -1.886,2.775c-0.192,0.256 -0.618,0.516 -0.896,0.477c-0.27,-0.038 -0.566,-0.418 -0.707,-0.716c-0.15,-0.317 -0.169,-0.713 -0.179,-1.076c-0.033,-1.244 -0.031,-2.488 -0.056,-3.731c-0.003,-0.177 -0.082,-0.352 -0.125,-0.528c-0.138,0.118 -0.321,0.21 -0.404,0.358c-0.731,1.305 -1.435,2.624 -2.163,3.93c-0.577,1.035 -1.157,2.07 -1.779,3.078c-0.141,0.228 -0.459,0.345 -0.696,0.513c-0.117,-0.271 -0.341,-0.544 -0.334,-0.811c0.048,-1.724 0.078,-3.454 0.247,-5.168c0.218,-2.22 0.533,-4.433 0.861,-6.64c0.19,-1.284 0.489,-2.551 0.727,-3.828c0.028,-0.147 -0.02,-0.308 -0.033,-0.462c-0.15,0.052 -0.341,0.063 -0.442,0.163c-0.863,0.853 -1.709,1.724 -2.562,2.587c-0.423,0.428 -0.42,0.839 -0.102,1.361c1.265,2.079 1.569,4.358 1.068,6.697c-0.468,2.186 -1.534,4.125 -3.006,5.809c-1.257,1.44 -2.706,2.652 -4.535,3.319c-0.449,0.163 -0.918,0.298 -1.388,0.372c-1.523,0.242 -2.657,-0.793 -2.681,-2.405c-0.022,-1.52 0.564,-2.869 1.196,-4.198c1.543,-3.246 3.825,-5.983 6.065,-8.747c0.337,-0.417 0.702,-0.812 1.017,-1.245c0.093,-0.128 0.059,-0.349 0.083,-0.528c-0.199,-0.009 -0.451,-0.101 -0.586,-0.013c-0.446,0.291 -0.845,0.655 -1.272,0.977c-0.358,0.271 -0.711,0.563 -1.107,0.765c-0.171,0.087 -0.445,-0.029 -0.672,-0.053c0.079,-0.19 0.11,-0.43 0.247,-0.56c0.47,-0.449 0.971,-0.865 1.471,-1.282c0.76,-0.633 0.86,-1.033 0.456,-1.909c-0.306,-0.664 -0.623,-1.325 -0.913,-1.996c-0.7,-1.618 0.106,-3.252 1.268,-4.037c0.974,-0.659 2.029,-1.237 3.119,-1.673c1.223,-0.489 2.526,-0.779 3.794,-1.154c0.081,-0.024 0.167,-0.046 0.25,-0.046c0.592,-0.002 1.248,-0.098 1.608,0.509c0.342,0.575 0.02,1.135 -0.321,1.568c-0.927,1.173 -1.896,2.313 -2.888,3.431c-1.05,1.183 -2.146,2.325 -3.22,3.487c-0.095,0.103 -0.206,0.21 -0.248,0.336c-0.048,0.146 -0.027,0.315 -0.036,0.473c0.178,0 0.388,0.06 0.525,-0.015c0.216,-0.117 0.391,-0.316 0.57,-0.494c1.241,-1.237 2.478,-2.478 3.716,-3.718c0.06,-0.06 0.11,-0.13 0.173,-0.186c0.299,-0.264 0.584,-0.57 1.029,-0.239c0.418,0.312 0.268,0.694 0.151,1.073c-0.224,0.728 -0.515,1.441 -0.665,2.183c-0.43,2.13 -0.862,4.264 -1.183,6.412c-0.283,1.9 -0.419,3.821 -0.613,5.733c-0.037,0.366 -0.055,0.735 -0.059,1.102c-0.001,0.125 0.07,0.25 0.108,0.376c0.087,-0.092 0.196,-0.171 0.256,-0.277c0.962,-1.696 1.921,-3.392 2.872,-5.094c0.536,-0.961 1.033,-1.944 1.598,-2.887c0.128,-0.213 0.463,-0.302 0.702,-0.447c0.075,0.247 0.236,0.504 0.21,0.741c-0.085,0.786 -0.318,1.562 -0.345,2.346c-0.049,1.41 0.003,2.824 0.035,4.236c0.004,0.172 0.142,0.34 0.218,0.51c0.169,-0.116 0.394,-0.195 0.499,-0.353c0.951,-1.436 1.878,-2.888 2.819,-4.331c0.184,-0.283 0.372,-0.571 0.604,-0.814c0.636,-0.669 1.188,-0.545 1.359,0.353c0.157,0.828 0.152,1.685 0.267,2.523c0.072,0.527 0.215,1.047 0.358,1.561c0.148,0.531 0.549,0.677 1.058,0.608c1.569,-0.212 4.019,-2.452 4.231,-4.174c0.41,-3.333 1.038,-6.643 1.676,-9.944c0.299,-1.541 0.804,-3.046 1.273,-4.549c0.157,-0.499 0.444,-0.982 0.77,-1.395c0.179,-0.226 0.598,-0.441 0.846,-0.385c0.241,0.055 0.519,0.44 0.573,0.72c0.106,0.547 0.144,1.131 0.075,1.684c-0.559,4.453 -1.65,8.756 -3.586,12.834c-0.413,0.871 -0.661,1.875 -0.744,2.838c-0.283,3.267 -0.457,6.544 -0.671,9.818c-0.011,0.169 -0.03,0.347 0.012,0.507c0.045,0.169 0.157,0.321 0.24,0.48c0.163,-0.088 0.393,-0.134 0.479,-0.271c0.464,-0.74 0.995,-1.461 1.307,-2.264c0.498,-1.283 0.854,-2.623 1.243,-3.946c0.163,-0.559 0.043,-0.933 -0.635,-1.135c-0.394,-0.117 -0.831,-0.536 -0.988,-0.925c-0.582,-1.448 -0.189,-2.784 0.768,-3.946c0.602,-0.732 1.449,-0.565 1.762,0.337c0.174,0.498 0.185,1.052 0.302,1.573c0.039,0.17 0.151,0.361 0.289,0.454c0.065,0.044 0.308,-0.089 0.408,-0.199c1.537,-1.688 2.838,-3.488 3.27,-5.823c0.213,-1.153 0.681,-2.261 1.061,-3.381c0.142,-0.418 0.401,-0.809 0.926,-0.671c0.595,0.158 0.571,0.703 0.443,1.12c-0.413,1.345 -0.779,2.723 -1.38,3.986c-1.059,2.23 -1.113,4.464 -0.396,6.759c0.458,1.466 1.678,1.885 2.81,0.864c1.708,-1.542 2.776,-3.343 2.613,-5.858c-0.31,-4.777 0.301,-9.433 2.802,-13.658c0.399,-0.675 0.919,-1.284 1.435,-1.878c0.177,-0.204 0.559,-0.422 0.769,-0.362c0.383,0.111 0.562,0.476 0.571,0.935c0.04,1.968 -0.174,3.916 -0.737,5.787c-0.893,2.967 -1.916,5.896 -2.897,8.836c-0.213,0.641 -0.579,1.246 -0.699,1.899c-0.312,1.705 0.328,3.242 1.111,4.691c0.409,0.755 1.247,0.609 1.777,0.055c1.424,-1.491 2.552,-3.21 3.587,-4.988c0.093,-0.159 0.132,-0.349 0.196,-0.525c-0.185,-0.044 -0.375,-0.143 -0.552,-0.123c-0.701,0.079 -1.395,0.232 -2.097,0.279c-0.295,0.02 -0.827,-0.1 -0.866,-0.254c-0.123,-0.489 0.398,-0.563 0.714,-0.65c0.788,-0.216 1.593,-0.391 2.401,-0.515c0.761,-0.117 1.108,-0.57 1.281,-1.262c0.137,-0.548 0.313,-1.086 0.493,-1.621c0.081,-0.239 0.16,-0.528 0.338,-0.674c0.277,-0.228 0.638,-0.353 0.963,-0.522c0.098,0.326 0.32,0.673 0.267,0.972c-0.103,0.575 -0.351,1.127 -0.559,1.681c-0.251,0.67 -0.156,0.844 0.531,0.772c2.275,-0.239 4.547,-0.509 6.823,-0.743c0.405,-0.041 0.822,0.037 1.233,0.06c-0.383,0.166 -0.752,0.404 -1.152,0.484c-2.436,0.487 -4.882,0.929 -7.321,1.406c-0.863,0.169 -1.043,0.341 -0.992,1.18c0.079,1.292 0.26,2.578 0.386,3.867c0.06,0.613 0.36,0.985 0.976,1.106c0.118,0.024 0.316,0.178 0.304,0.221c-0.043,0.147 -0.135,0.315 -0.26,0.396c-0.496,0.326 -1.336,0.05 -1.606,-0.636c-0.286,-0.727 -0.397,-1.522 -0.605,-2.281c-0.127,-0.462 -0.294,-0.914 -0.443,-1.371c-0.298,0.359 -0.6,0.715 -0.893,1.079c-0.725,0.899 -1.436,1.811 -2.175,2.699c-0.214,0.257 -0.486,0.476 -0.762,0.669c-1.129,0.787 -2.272,0.546 -2.935,-0.653c-0.326,-0.588 -0.542,-1.237 -0.824,-1.85c-0.281,-0.612 -0.346,-0.599 -0.765,-0.088c-0.573,0.696 -1.124,1.425 -1.783,2.033c-1.577,1.453 -3.644,0.887 -4.253,-1.169c-0.255,-0.859 -0.308,-1.776 -0.471,-2.664c-0.038,-0.202 -0.154,-0.389 -0.235,-0.583c-0.159,0.096 -0.361,0.158 -0.473,0.293c-0.872,1.064 -1.82,2.084 -2.55,3.24c-0.4,0.635 -0.47,1.499 -0.608,2.274c-0.404,2.274 -1.415,4.27 -2.732,6.128c-0.299,0.423 -0.608,0.944 -1.273,0.795c-0.549,-0.123 -0.974,-0.777 -0.958,-1.543c0.032,-1.5 0.108,-2.998 0.165,-4.497c0.02,0.001 0.04,0.002 0.061,0.003c0.054,-1.413 0.112,-2.827 0.157,-4.24zM92.4802,184.201c-0.468,-0.945 -0.859,-1.011 -1.51,-0.166c-1.046,1.36 -1.992,2.798 -3.074,4.127c-1.16,1.425 -2.11,2.968 -2.933,4.596c-0.624,1.234 -1.223,2.482 -1.19,3.92c0.019,0.802 0.456,1.245 1.225,1.133c0.464,-0.068 0.951,-0.179 1.359,-0.4c1.408,-0.761 2.772,-1.568 3.838,-2.833c1.575,-1.868 2.698,-3.909 2.95,-6.144c0.148,-1.624 -0.039,-2.965 -0.665,-4.233zM90.2462,179.149c0.459,0.67 0.689,0.686 1.235,0.096c0.575,-0.621 1.143,-1.247 1.71,-1.874c1.344,-1.483 2.694,-2.961 4.02,-4.461c0.166,-0.187 0.203,-0.488 0.3,-0.736c-0.246,-0.09 -0.516,-0.298 -0.733,-0.252c-2.249,0.474 -4.386,1.234 -6.255,2.622c-0.671,0.498 -1.043,1.162 -1.121,1.772c-0.007,1.182 0.305,2.047 0.844,2.833zM128.1052,184.282c0,0.098 0.127,0.23 0.228,0.28c0.053,0.027 0.212,-0.066 0.263,-0.144c0.09,-0.138 0.14,-0.304 0.197,-0.462c0.453,-1.24 0.93,-2.472 1.348,-3.724c0.722,-2.161 1.505,-4.312 1.593,-6.625c0.014,-0.364 -0.047,-0.73 -0.073,-1.095c-0.274,0.283 -0.609,0.529 -0.815,0.856c-1.756,2.79 -2.436,5.903 -2.684,9.139c-0.023,0.591 -0.057,1.183 -0.057,1.775zM116.0602,188.959c-0.039,-0.142 -0.168,-0.26 -0.257,-0.388c-0.14,0.121 -0.35,0.216 -0.407,0.368c-0.155,0.418 -0.276,0.855 -0.354,1.294c-0.11,0.62 0.163,1.217 0.53,1.263c0.402,0.05 0.712,-0.421 0.759,-1.367c-0.056,-0.246 -0.146,-0.712 -0.271,-1.17zM114.3992,182.126c0.144,-0.175 0.349,-0.329 0.42,-0.531c0.159,-0.448 0.267,-0.917 0.367,-1.384c0.383,-1.786 0.759,-3.573 1.119,-5.364c0.031,-0.159 -0.08,-0.346 -0.125,-0.52c-0.107,0.146 -0.271,0.276 -0.313,0.438c-0.574,2.23 -1.132,4.464 -1.664,6.58c0.092,0.367 0.144,0.574 0.196,0.781z" fill="#ffffff" fill-opacity="1"></path></g><g><title>&amp;lt;Path&amp;gt;</title><path d="M74.9407,183.3014c-0.499,1.405 -1.174,2.746 -1.727,4.132c-0.721,1.806 -0.616,3.658 -0.155,5.499c0.167,0.669 0.748,0.924 1.41,0.627c0.509,-0.229 1.025,-0.518 1.425,-0.898c1.094,-1.044 2.13,-2.15 3.187,-3.233c0.114,-0.117 0.198,-0.273 0.328,-0.363c0.093,-0.065 0.241,-0.053 0.364,-0.075c0.007,0.133 0.071,0.306 0.011,0.394c-1.301,1.904 -2.573,3.846 -4.681,4.984c-1.392,0.752 -2.582,0.274 -3.078,-1.226c-0.174,-0.53 -0.225,-1.099 -0.345,-1.647c-0.034,-0.155 -0.112,-0.301 -0.17,-0.45c-0.153,0.098 -0.352,0.162 -0.451,0.299c-0.611,0.845 -1.185,1.718 -1.804,2.557c-0.283,0.383 -0.604,0.758 -0.973,1.053c-0.787,0.629 -1.697,0.36 -2.04,-0.583c-0.154,-0.423 -0.233,-0.873 -0.356,-1.308c-0.066,-0.233 -0.152,-0.461 -0.229,-0.691c-0.202,0.166 -0.415,0.322 -0.605,0.501c-0.511,0.483 -0.974,1.023 -1.525,1.452c-0.783,0.609 -1.576,0.279 -1.754,-0.721c-0.123,-0.69 -0.13,-1.399 -0.203,-2.099c-0.024,-0.234 -0.094,-0.464 -0.143,-0.696c-0.195,0.177 -0.435,0.325 -0.576,0.538c-0.668,1.004 -1.302,2.032 -1.968,3.038c-0.103,0.156 -0.312,0.241 -0.472,0.359c0,-0.213 -0.07,-0.462 0.014,-0.635c0.575,-1.187 1.173,-2.363 1.783,-3.533c0.821,-1.577 1.658,-3.145 2.488,-4.717c0.066,-0.124 0.097,-0.293 0.199,-0.368c0.188,-0.139 0.416,-0.223 0.627,-0.329c0.083,0.218 0.268,0.457 0.23,0.652c-0.131,0.66 -0.394,1.296 -0.511,1.958c-0.26,1.471 -0.464,2.951 -0.686,4.428c-0.016,0.11 -0.032,0.242 0.012,0.336c0.116,0.243 0.217,0.591 0.414,0.668c0.177,0.069 0.56,-0.1 0.702,-0.281c1.121,-1.431 2.118,-2.913 2.241,-4.831c0.214,-3.353 1.159,-6.495 2.961,-9.345c0.45,-0.712 1.019,-1.351 1.562,-1.999c0.289,-0.345 0.661,-0.517 1.131,-0.287c0.464,0.226 0.473,0.641 0.375,1.019c-0.291,1.115 -0.53,2.261 -0.981,3.313c-1.178,2.745 -2.443,5.453 -3.703,8.162c-0.744,1.6 -0.427,3.204 -0.104,4.812c0.082,0.408 0.413,0.482 0.7,0.197c0.378,-0.375 0.74,-0.78 1.033,-1.223c0.795,-1.199 1.594,-2.399 2.302,-3.649c0.34,-0.599 0.566,-1.296 0.689,-1.977c0.507,-2.813 1.158,-5.58 2.352,-8.192c0.234,-0.511 0.489,-1.027 0.827,-1.472c0.191,-0.252 0.582,-0.525 0.859,-0.502c0.429,0.037 0.458,0.5 0.444,0.884c-0.006,0.141 -0.011,0.282 -0.017,0.423c0.043,0.014 0.086,0.028 0.129,0.042c-0.508,1.67 -0.959,3.36 -1.542,5.003zM67.5907,185.4154c0.135,-0.118 0.325,-0.211 0.398,-0.36c0.486,-0.984 0.976,-1.968 1.406,-2.977c0.396,-0.93 0.731,-1.887 1.063,-2.843c0.063,-0.181 -0.015,-0.412 -0.029,-0.62c-0.146,0.11 -0.331,0.192 -0.432,0.335c-1.286,1.806 -2.007,3.848 -2.501,6.038c0.026,0.119 0.06,0.273 0.095,0.427z" fill="#ffffff" fill-opacity="1"></path></g><g><title>&amp;lt;Path&amp;gt;</title><path d="M59.0675,187.3155c-1.347,1.869 -3.095,3.341 -5.045,4.472c-1.688,0.979 -2.392,2.301 -2.571,4.144c-0.11,1.144 -0.455,2.268 -0.737,3.391c-0.055,0.218 -0.303,0.388 -0.462,0.58c-0.115,-0.254 -0.35,-0.521 -0.325,-0.76c0.119,-1.152 0.324,-2.294 0.464,-3.443c0.052,-0.434 0.012,-0.88 0.015,-1.32c-0.418,0.091 -0.844,0.155 -1.251,0.28c-0.512,0.158 -1.005,0.375 -1.513,0.548c-0.119,0.041 -0.264,0.008 -0.397,0.009c0.076,-0.134 0.12,-0.318 0.235,-0.395c0.726,-0.487 1.454,-0.976 2.21,-1.413c0.805,-0.465 1.324,-1.077 1.504,-2.025c0.318,-1.677 0.715,-3.34 1.069,-5.011c0.03,-0.14 -0.018,-0.297 -0.029,-0.447c-0.132,0.041 -0.281,0.054 -0.393,0.126c-0.662,0.431 -1.315,0.877 -1.973,1.314c-0.364,0.242 -0.749,0.682 -1.16,0.144c-0.377,-0.494 0.059,-0.842 0.374,-1.153c0.965,-0.953 1.929,-1.909 2.929,-2.825c1.017,-0.933 1.843,-1.977 2.269,-3.311c0.118,-0.367 0.23,-0.852 0.769,-0.283c0.097,0.103 0.572,0.023 0.723,-0.125c1.975,-1.94 3.925,-3.905 5.439,-6.247c0.107,-0.166 0.227,-0.333 0.286,-0.518c0.115,-0.354 0.002,-0.595 -0.406,-0.453c-0.424,0.148 -0.845,0.332 -1.228,0.564c-2.801,1.691 -5.212,3.843 -7.483,6.19c-1.583,1.636 -2.943,3.431 -4.281,5.254c-0.245,0.335 -0.398,0.739 -0.648,1.069c-0.123,0.164 -0.37,0.234 -0.561,0.347c0.02,-0.194 -0.024,-0.429 0.07,-0.575c0.958,-1.478 1.858,-3.003 2.928,-4.396c2.928,-3.812 6.302,-7.148 10.596,-9.438c0.148,-0.079 0.295,-0.164 0.45,-0.228c0.92,-0.383 1.289,-0.345 1.77,0.176c0.403,0.436 0.443,1.094 -0.05,1.789c-1.009,1.424 -2.007,2.868 -3.144,4.186c-1.457,1.688 -3.046,3.261 -4.578,4.884c-0.02,0.02 -0.046,0.036 -0.06,0.06c-0.135,0.226 -0.268,0.453 -0.402,0.68c0.269,-0.036 0.541,-0.057 0.806,-0.111c0.992,-0.206 1.972,-0.496 2.974,-0.617c1.354,-0.164 2.243,0.636 2.176,2.001c-0.169,0.973 -0.693,1.96 -1.359,2.886zM58.5645,183.5495c-0.333,-0.032 -0.698,-0.061 -1.007,0.039c-1.041,0.336 -2.085,0.68 -3.08,1.129c-0.355,0.16 -0.731,0.588 -0.824,0.961c-0.415,1.669 -0.732,3.362 -1.078,5.048c-0.021,0.1 -0.004,0.296 0.032,0.305c0.118,0.03 0.284,0.041 0.377,-0.022c2.12,-1.427 4.072,-3.044 5.562,-5.144c0.317,-0.446 0.472,-1.006 0.701,-1.513c-0.044,-0.484 -0.245,-0.762 -0.683,-0.803z" fill="#ffffff" fill-opacity="1"></path></g><g><title>&amp;lt;Path&amp;gt;</title><path d="M62.4435,180.6899c-0.04,-0.128 -0.157,-0.296 -0.124,-0.427c0.163,-0.644 2.046,-1.978 2.667,-1.899c0.118,0.015 0.275,0.116 0.318,0.218c0.045,0.105 0.02,0.328 -0.057,0.382c-0.829,0.579 -1.673,1.135 -2.516,1.693c-0.042,0.028 -0.11,0.015 -0.288,0.033z" fill="#ffffff" fill-opacity="1"></path></g><g><title>&amp;lt;Path&amp;gt;</title><path d="M249.2409,189.2317c0.662,-0.251 1.318,-0.6 1.867,-1.042c0.516,-0.416 0.886,-1.013 1.327,-1.524c0.614,-0.71 1.228,-1.418 1.853,-2.117c0.24,-0.268 0.572,-0.199 0.69,0.151c0.244,0.724 0.557,1.446 0.648,2.192c0.046,0.377 -0.294,0.828 -0.527,1.204c-0.248,0.4 -0.576,0.75 -0.922,1.188c1.117,0.401 2.025,0.144 2.873,-0.457c0.451,-0.319 0.875,-0.676 1.336,-0.978c0.159,-0.104 0.526,-0.181 0.569,-0.117c0.165,0.247 0.267,0.565 -0.061,0.798c-0.619,0.441 -1.239,0.881 -1.869,1.305c-0.859,0.579 -1.811,0.62 -2.803,0.489c-1.009,-0.133 -1.343,-0.718 -0.835,-1.736c0.205,-0.41 0.448,-0.827 0.767,-1.148c0.407,-0.409 0.3,-0.774 0.048,-1.292c-0.435,0.457 -0.85,0.871 -1.239,1.307c-0.437,0.492 -0.781,1.094 -1.29,1.486c-0.649,0.501 -1.401,0.884 -2.147,1.237c-1.38,0.654 -2.723,0.512 -4.05,-0.247c-0.352,-0.2 -0.44,-0.416 -0.473,-0.753c-0.033,-0.341 -0.218,-0.46 -0.516,-0.256c-1.141,0.78 -2.415,1.24 -3.752,1.529c-0.317,0.069 -0.689,0.08 -0.992,-0.018c-1.091,-0.35 -1.807,-1.061 -1.885,-2.388c-0.231,0.186 -0.38,0.278 -0.493,0.403c-0.766,0.853 -1.519,1.717 -2.289,2.566c-0.132,0.145 -0.307,0.272 -0.487,0.346c-0.577,0.235 -0.747,0.106 -0.748,-0.532c-0.001,-0.084 0.013,-0.168 0.028,-0.339c-0.445,0.118 -0.813,0.228 -1.186,0.312c-0.407,0.091 -0.817,0.214 -1.229,0.225c-1.108,0.03 -1.576,-0.455 -1.571,-1.547c0.001,-0.136 0,-0.272 0,-0.462c-0.797,0.37 -1.555,0.729 -2.319,1.074c-0.773,0.349 -1.582,0.466 -2.418,0.296c-0.172,-0.036 -0.416,-0.12 -0.472,-0.248c-0.213,-0.494 -0.465,-0.25 -0.76,-0.115c-0.669,0.306 -1.334,0.647 -2.035,0.852c-1.04,0.306 -1.655,-0.333 -1.437,-1.418c0.175,-0.871 0.708,-1.546 1.265,-2.196c1.002,-1.168 2.243,-2.046 3.597,-2.741c0.542,-0.278 1.19,-0.394 1.804,-0.47c0.25,-0.031 0.72,0.194 0.77,0.386c0.092,0.358 -0.047,0.776 -0.098,1.169c-0.004,0.029 -0.073,0.051 -0.114,0.074c-0.241,0.137 -0.483,0.273 -0.725,0.41v-0.903c-0.958,-0.084 -1.81,0.415 -2.633,0.968c-0.884,0.594 -1.657,1.318 -2.276,2.184c-0.261,0.367 -0.447,0.793 -0.627,1.21c-0.134,0.31 0.034,0.44 0.341,0.367c0.29,-0.068 0.584,-0.141 0.857,-0.257c0.476,-0.201 0.964,-0.398 1.397,-0.675c0.25,-0.159 0.481,-0.443 0.582,-0.722c0.281,-0.774 0.86,-1.298 1.468,-1.767c0.205,-0.159 0.635,-0.026 0.962,-0.027c-0.014,0.304 0.08,0.677 -0.062,0.896c-0.357,0.548 -0.825,1.022 -1.24,1.532c-0.103,0.127 -0.175,0.279 -0.262,0.419c0.17,0.044 0.349,0.147 0.506,0.121c0.448,-0.077 0.905,-0.161 1.327,-0.325c0.641,-0.248 1.245,-0.592 1.884,-0.849c1.456,-0.586 1.986,-1.971 2.778,-3.137c0.658,-0.968 1.334,-1.926 2.027,-2.87c0.678,-0.924 1.327,-1.881 2.104,-2.716c0.588,-0.632 1.344,-1.115 2.053,-1.626c0.315,-0.227 0.748,-0.035 0.797,0.353c0.048,0.383 0.061,0.805 -0.048,1.169c-0.493,1.646 -1.197,3.199 -2.335,4.51c-0.914,1.052 -1.863,2.079 -2.988,2.916c-0.771,0.574 -1.552,1.139 -2.367,1.646c-0.498,0.309 -0.437,0.765 -0.346,1.15c0.089,0.374 0.517,0.444 0.866,0.324c0.735,-0.252 1.489,-0.484 2.174,-0.841c1.648,-0.859 2.697,-2.364 3.918,-3.7c1.602,-1.755 3.344,-3.382 5.03,-5.061c0.488,-0.486 0.972,-0.978 1.489,-1.432c0.442,-0.388 0.909,-0.758 1.409,-1.064c0.16,-0.097 0.462,0.037 0.699,0.065c-0.057,0.224 -0.046,0.509 -0.183,0.662c-0.597,0.664 -1.221,1.307 -1.872,1.92c-0.214,0.202 -0.566,0.251 -0.806,0.434c-0.454,0.346 -0.894,0.716 -1.301,1.115c-0.886,0.869 -1.744,1.765 -2.621,2.643c-0.274,0.274 -0.592,0.506 -0.848,0.794c-0.117,0.13 -0.134,0.35 -0.197,0.529c0.184,-0.026 0.398,0.001 0.545,-0.086c0.766,-0.451 1.482,-0.999 2.279,-1.379c0.589,-0.28 1.267,-0.423 1.921,-0.501c0.585,-0.07 0.776,0.2 0.767,0.802c-0.013,0.94 -0.5,1.593 -1.542,1.975c-0.862,0.316 -1.738,0.594 -2.615,0.868c-0.717,0.225 -0.985,0.473 -0.928,0.928c0.06,0.476 0.63,0.959 1.196,0.957c0.953,-0.004 1.811,-0.369 2.609,-0.84c0.751,-0.444 1.485,-0.932 2.159,-1.484c0.379,-0.31 0.622,-0.786 0.924,-1.189c0.743,-0.992 1.698,-1.649 2.928,-1.894c0.626,-0.125 0.909,0.074 0.781,0.714c-0.135,0.675 -0.399,1.324 -0.614,1.982c-0.345,1.058 -1.097,1.779 -2.107,2.397c0.891,0.61 1.64,0.202 2.341,-0.063zM232.1969,186.8067c1.129,-1.024 2.406,-1.861 3.431,-3.025c0.867,-0.985 1.576,-2.03 2.022,-3.26c0.13,-0.36 0.316,-0.7 0.438,-1.062c0.043,-0.128 -0.027,-0.295 -0.046,-0.444c-0.142,0.057 -0.328,0.074 -0.418,0.176c-1.008,1.132 -2.037,2.249 -2.986,3.43c-0.631,0.787 -1.149,1.666 -1.707,2.511c-0.331,0.501 -0.639,1.016 -0.958,1.526zM248.7599,185.3547c-1.177,0.026 -2.638,1.727 -2.822,3.309c1.589,-0.664 2.001,-2.104 2.822,-3.309zM239.5689,186.8857c1.048,-0.3 2.139,-0.503 3.032,-1.197c0.2,-0.156 0.286,-0.46 0.424,-0.696c-0.229,0.046 -0.459,0.088 -0.686,0.14c-0.09,0.02 -0.179,0.052 -0.26,0.095c-0.875,0.474 -1.749,0.951 -2.623,1.428c0.038,0.076 0.075,0.153 0.113,0.23zM238.3629,186.3407c0.016,0.015 0.035,0.046 0.046,0.043c0.033,-0.007 0.063,-0.028 0.094,-0.043c-0.016,-0.016 -0.031,-0.031 -0.05,-0.05c-0.029,0.016 -0.06,0.033 -0.09,0.05z" fill="#ffffff" fill-opacity="1"></path></g><g><title>&amp;lt;Path&amp;gt;</title><path d="M170.6326,191.6535c-0.383,0.522 -0.653,1.132 -0.933,1.722c-0.737,1.553 -1.571,3.04 -2.506,4.491c-1.238,1.92 -2.584,3.746 -4.011,5.521c-0.617,0.769 -1.186,1.588 -1.881,2.28c-0.437,0.435 -1.032,0.779 -1.618,0.981c-0.838,0.289 -1.38,-0.075 -1.468,-0.952c-0.127,-1.283 0.111,-2.483 0.774,-3.649c1.66,-2.917 4.039,-5.173 6.507,-7.359c1.336,-1.184 2.717,-2.32 4.023,-3.536c0.342,-0.318 0.496,-0.846 0.715,-1.289c0.773,-1.565 1.279,-3.219 1.599,-4.931c0.161,-0.861 0.378,-1.722 0.429,-2.592c0.088,-1.521 -0.15,-3.012 -1.002,-4.313c-0.486,-0.742 -1.17,-1.285 -2.112,-1.404c-1.447,-0.183 -2.789,0.109 -4.082,0.775c-1.356,0.698 -2.613,1.535 -3.714,2.58c-0.496,0.471 -0.892,1.057 -1.286,1.623c-1.43,2.054 -1.192,4.689 0.637,6.329c0.818,0.733 1.835,1.218 2.952,1.512c1.337,0.351 2.682,0.427 4.04,0.49c0.418,0.02 0.825,0.046 1.162,-0.291c0.305,-0.305 0.551,-0.109 0.734,0.162c0.242,0.356 0.15,0.762 -0.202,0.925c-0.851,0.393 -1.742,0.347 -2.648,0.255c-1.674,-0.168 -3.279,-0.623 -4.83,-1.23c-1.291,-0.504 -2.279,-1.399 -2.924,-2.675c-0.757,-1.498 -0.83,-3.047 -0.31,-4.582c0.626,-1.846 1.901,-3.228 3.525,-4.289c0.747,-0.488 1.469,-1.025 2.254,-1.443c1.616,-0.862 3.31,-1.415 5.181,-0.946c1.584,0.396 2.471,1.488 2.992,2.96c0.698,1.972 0.609,3.979 0.18,5.968c-0.331,1.532 -0.82,3.03 -1.255,4.601c0.129,-0.046 0.309,-0.068 0.44,-0.161c0.827,-0.585 1.662,-1.161 2.453,-1.792c0.301,-0.24 0.484,-0.624 0.737,-0.929c0.222,-0.266 0.443,-0.542 0.707,-0.763c0.418,-0.349 0.91,-0.615 1.302,-0.989c0.517,-0.492 1.52,-0.706 2.006,-0.263c0.246,0.223 0.367,0.608 0.487,0.941c0.124,0.345 0.189,0.665 0.69,0.493c0.159,-0.054 0.372,0.051 0.559,0.083c-0.089,0.206 -0.176,0.414 -0.272,0.618c-0.017,0.035 -0.073,0.069 -0.115,0.074c-0.751,0.081 -0.96,0.75 -1.362,1.223c-0.83,0.98 -1.671,1.932 -2.875,2.517c-0.672,0.327 -1.305,0.175 -1.957,0.146c-0.11,-0.005 -0.251,-0.252 -0.301,-0.411c-0.083,-0.259 -0.102,-0.538 -0.163,-0.9c-1.135,0.798 -2.435,1.295 -3.258,2.419zM168.5586,193.3055c-0.085,0.034 -0.179,0.055 -0.253,0.105c-0.114,0.077 -0.218,0.171 -0.32,0.264c-1.707,1.567 -3.534,2.988 -5.094,4.736c-1.347,1.51 -2.681,2.973 -3.555,4.826c-0.353,0.749 -0.359,1.457 -0.21,2.213c0.054,0.27 0.194,0.451 0.472,0.206c0.771,-0.679 1.617,-1.298 2.28,-2.072c1.115,-1.3 2.127,-2.69 3.151,-4.065c0.559,-0.751 1.066,-1.541 1.573,-2.329c0.358,-0.555 0.691,-1.127 1.007,-1.707c0.372,-0.681 0.714,-1.378 1.069,-2.069c-0.04,-0.036 -0.08,-0.072 -0.12,-0.108zM176.4436,187.0525c-0.079,-0.019 -0.224,0.062 -0.275,0.14c-0.487,0.729 -1.149,1.366 -1.268,2.415c1.61,-0.036 2.431,-1.215 3.422,-2.082c-0.672,-0.173 -1.273,-0.335 -1.879,-0.473zM178.3336,186.4295c0.177,-0.092 0.441,-0.198 0.475,-0.343c0.048,-0.209 -0.076,-0.458 -0.127,-0.69c-0.18,0.088 -0.361,0.172 -0.54,0.263c-0.123,0.063 -0.269,0.11 -0.355,0.207c-0.122,0.14 -0.199,0.321 -0.295,0.484c0.16,0.06 0.32,0.121 0.374,0.142c0.242,-0.029 0.372,-0.013 0.468,-0.063z" fill="#ffffff" fill-opacity="1"></path></g><g><title>&amp;lt;Path&amp;gt;</title><path d="M185.1272,184.9091c0.74,-0.459 1.484,-0.91 2.216,-1.382c0.235,-0.152 0.388,-0.164 0.589,0.064c0.186,0.21 0.262,0.355 0.154,0.663c-0.35,1 -1.171,1.682 -1.671,2.579c-0.357,0.641 -0.804,1.232 -1.21,1.846c-0.051,0.077 -0.115,0.156 -0.133,0.243c-0.052,0.259 -0.084,0.523 -0.124,0.785c0.249,0.024 0.517,0.119 0.743,0.058c0.508,-0.138 1.033,-0.288 1.481,-0.552c0.67,-0.394 1.22,-1.057 1.927,-1.309c1.25,-0.445 1.099,-1.556 1.434,-2.447c0.049,-0.13 0.03,-0.314 0.115,-0.393c0.135,-0.124 0.343,-0.262 0.499,-0.24c0.141,0.019 0.344,0.234 0.36,0.38c0.037,0.341 -0.023,0.693 -0.043,1.04c-0.009,0.168 -0.016,0.337 -0.027,0.557c1.033,-0.657 1.975,-1.286 2.949,-1.862c0.387,-0.23 0.832,-0.409 1.273,-0.489c0.426,-0.076 0.672,0.314 0.495,0.72c-0.099,0.227 -0.286,0.414 -0.425,0.626c-0.666,1.019 -1.331,2.04 -1.992,3.063c-0.035,0.054 -0.035,0.129 -0.089,0.346c0.513,-0.137 0.958,-0.222 1.378,-0.374c1.083,-0.394 2.096,-0.925 2.996,-1.657c0.143,-0.116 0.304,-0.241 0.476,-0.28c0.229,-0.053 0.593,-0.128 0.693,-0.014c0.216,0.249 -0.014,0.862 -0.295,1.015c-1.276,0.694 -2.537,1.416 -3.831,2.074c-0.713,0.363 -1.444,0.731 -2.283,0.726c-0.744,-0.004 -0.956,-0.245 -0.69,-0.925c0.214,-0.548 0.532,-1.057 0.82,-1.574c0.222,-0.397 0.47,-0.78 0.756,-1.253c-0.635,-0.06 -0.965,0.316 -1.277,0.583c-0.919,0.788 -1.782,1.642 -2.668,2.469c-0.168,0.157 -0.318,0.362 -0.518,0.449c-0.239,0.104 -0.526,0.144 -0.785,0.121c-0.058,-0.005 -0.085,-0.387 -0.119,-0.597c-0.01,-0.065 0.006,-0.135 0.014,-0.284c-0.627,0.257 -1.199,0.552 -1.806,0.723c-0.592,0.166 -1.218,0.274 -1.831,0.283c-0.646,0.009 -0.932,-0.368 -0.767,-1.01c0.15,-0.589 0.399,-1.165 0.69,-1.7c0.349,-0.644 0.794,-1.234 1.18,-1.859c0.072,-0.116 0.061,-0.284 0.088,-0.428c-0.172,0.012 -0.344,0.019 -0.515,0.04c-0.036,0.004 -0.066,0.056 -0.098,0.087c-0.734,0.722 -1.499,1.417 -2.194,2.175c-0.658,0.719 -1.239,1.51 -1.865,2.259c-0.144,0.173 -0.314,0.345 -0.508,0.451c-0.188,0.102 -0.422,0.117 -0.636,0.17c-0.035,-0.26 -0.092,-0.52 -0.096,-0.781c-0.002,-0.127 0.075,-0.27 0.153,-0.379c1.579,-2.217 3.078,-4.496 4.965,-6.477c1.411,-1.482 2.823,-2.964 4.238,-4.442c0.094,-0.098 0.215,-0.219 0.336,-0.236c0.262,-0.037 0.533,-0.013 0.8,-0.013c-0.081,0.214 -0.106,0.482 -0.252,0.635c-0.597,0.627 -1.245,1.206 -1.848,1.828c-0.908,0.939 -1.796,1.897 -2.689,2.851c-0.245,0.263 -0.476,0.539 -0.714,0.808c0.06,0.08 0.121,0.16 0.181,0.24z" fill="#ffffff" fill-opacity="1"></path></g><g><title>&amp;lt;Path&amp;gt;</title><path d="M210.7078,187.6472c-0.816,0.654 -1.565,1.294 -2.357,1.877c-0.68,0.5 -1.374,1.01 -2.132,1.369c-0.42,0.199 -0.989,0.153 -1.479,0.104c-0.207,-0.021 -0.492,-0.304 -0.554,-0.522c-0.144,-0.502 -0.256,-1.04 -0.235,-1.557c0.079,-1.947 0.838,-3.652 1.973,-5.209c0.676,-0.928 1.34,-1.867 2.019,-2.792c0.216,-0.294 0.518,-0.506 0.853,-0.22c0.318,0.272 0.144,0.577 -0.085,0.838c-1.236,1.408 -2.235,2.978 -3.097,4.634c-0.541,1.04 -0.796,2.163 -0.7,3.338c0.052,0.65 0.286,0.765 0.878,0.508c1.413,-0.616 2.567,-1.603 3.696,-2.619c0.407,-0.366 0.756,-0.797 1.168,-1.156c0.741,-0.643 0.834,-1.607 1.255,-2.407c0.309,-0.586 0.596,-1.186 0.95,-1.744c0.141,-0.223 0.373,-0.506 0.748,-0.279c0.373,0.227 0.385,0.526 0.235,0.891c-0.47,1.148 -1.048,2.239 -1.626,3.336c-0.466,0.886 -0.736,1.897 -0.515,2.94c0.124,0.584 0.382,0.757 0.981,0.691c0.93,-0.104 1.703,-0.591 2.417,-1.13c0.881,-0.665 1.652,-1.476 2.542,-2.125c1.413,-1.031 2.398,-2.397 3.226,-3.89c0.322,-0.58 0.584,-1.217 0.744,-1.86c0.3,-1.211 0.512,-2.444 0.747,-3.671c0.054,-0.281 0.047,-0.597 0.463,-0.53c0.377,0.061 0.386,0.366 0.347,0.649c-0.198,1.464 -0.439,2.901 -0.973,4.31c-0.523,1.376 -1.113,2.693 -2.043,3.816c-0.625,0.754 -1.394,1.393 -2.125,2.054c-0.54,0.488 -1.17,0.882 -1.679,1.398c-0.847,0.861 -1.89,1.388 -2.968,1.842c-0.967,0.409 -2.003,0.075 -2.467,-0.81c-0.207,-0.395 -0.154,-0.93 -0.204,-1.403c-0.02,-0.198 -0.003,-0.401 -0.003,-0.671z" fill="#ffffff" fill-opacity="1"></path></g></g></svg>