<?xml version="1.0" encoding="UTF-8"?>
<svg id="SVGDoc" width="306" height="594" xmlns="http://www.w3.org/2000/svg" version="1.1" xmlns:xlink="http://www.w3.org/1999/xlink" xmlns:avocode="https://avocode.com/" viewBox="0 0 306 594"><defs></defs><desc>Generated with Avocode.</desc><g><g><title>&amp;lt;Path&amp;gt;</title><path d="M210.7078,187.6472c-0.816,0.654 -1.565,1.294 -2.357,1.877c-0.68,0.5 -1.374,1.01 -2.132,1.369c-0.42,0.199 -0.989,0.153 -1.479,0.104c-0.207,-0.021 -0.492,-0.304 -0.554,-0.522c-0.144,-0.502 -0.256,-1.04 -0.235,-1.557c0.079,-1.947 0.838,-3.652 1.973,-5.209c0.676,-0.928 1.34,-1.867 2.019,-2.792c0.216,-0.294 0.518,-0.506 0.853,-0.22c0.318,0.272 0.144,0.577 -0.085,0.838c-1.236,1.408 -2.235,2.978 -3.097,4.634c-0.541,1.04 -0.796,2.163 -0.7,3.338c0.052,0.65 0.286,0.765 0.878,0.508c1.413,-0.616 2.567,-1.603 3.696,-2.619c0.407,-0.366 0.756,-0.797 1.168,-1.156c0.741,-0.643 0.834,-1.607 1.255,-2.407c0.309,-0.586 0.596,-1.186 0.95,-1.744c0.141,-0.223 0.373,-0.506 0.748,-0.279c0.373,0.227 0.385,0.526 0.235,0.891c-0.47,1.148 -1.048,2.239 -1.626,3.336c-0.466,0.886 -0.736,1.897 -0.515,2.94c0.124,0.584 0.382,0.757 0.981,0.691c0.93,-0.104 1.703,-0.591 2.417,-1.13c0.881,-0.665 1.652,-1.476 2.542,-2.125c1.413,-1.031 2.398,-2.397 3.226,-3.89c0.322,-0.58 0.584,-1.217 0.744,-1.86c0.3,-1.211 0.512,-2.444 0.747,-3.671c0.054,-0.281 0.047,-0.597 0.463,-0.53c0.377,0.061 0.386,0.366 0.347,0.649c-0.198,1.464 -0.439,2.901 -0.973,4.31c-0.523,1.376 -1.113,2.693 -2.043,3.816c-0.625,0.754 -1.394,1.393 -2.125,2.054c-0.54,0.488 -1.17,0.882 -1.679,1.398c-0.847,0.861 -1.89,1.388 -2.968,1.842c-0.967,0.409 -2.003,0.075 -2.467,-0.81c-0.207,-0.395 -0.154,-0.93 -0.204,-1.403c-0.02,-0.198 -0.003,-0.401 -0.003,-0.671z" fill="#ffffff" fill-opacity="1"></path></g></g></svg>