<?xml version="1.0" encoding="UTF-8"?>
<svg id="SVGDoc" width="306" height="594" xmlns="http://www.w3.org/2000/svg" version="1.1" xmlns:xlink="http://www.w3.org/1999/xlink" xmlns:avocode="https://avocode.com/" viewBox="0 0 306 594"><defs></defs><desc>Generated with Avocode.</desc><g><g><title>&amp;lt;Path&amp;gt;</title><path d="M185.1272,184.9091c0.74,-0.459 1.484,-0.91 2.216,-1.382c0.235,-0.152 0.388,-0.164 0.589,0.064c0.186,0.21 0.262,0.355 0.154,0.663c-0.35,1 -1.171,1.682 -1.671,2.579c-0.357,0.641 -0.804,1.232 -1.21,1.846c-0.051,0.077 -0.115,0.156 -0.133,0.243c-0.052,0.259 -0.084,0.523 -0.124,0.785c0.249,0.024 0.517,0.119 0.743,0.058c0.508,-0.138 1.033,-0.288 1.481,-0.552c0.67,-0.394 1.22,-1.057 1.927,-1.309c1.25,-0.445 1.099,-1.556 1.434,-2.447c0.049,-0.13 0.03,-0.314 0.115,-0.393c0.135,-0.124 0.343,-0.262 0.499,-0.24c0.141,0.019 0.344,0.234 0.36,0.38c0.037,0.341 -0.023,0.693 -0.043,1.04c-0.009,0.168 -0.016,0.337 -0.027,0.557c1.033,-0.657 1.975,-1.286 2.949,-1.862c0.387,-0.23 0.832,-0.409 1.273,-0.489c0.426,-0.076 0.672,0.314 0.495,0.72c-0.099,0.227 -0.286,0.414 -0.425,0.626c-0.666,1.019 -1.331,2.04 -1.992,3.063c-0.035,0.054 -0.035,0.129 -0.089,0.346c0.513,-0.137 0.958,-0.222 1.378,-0.374c1.083,-0.394 2.096,-0.925 2.996,-1.657c0.143,-0.116 0.304,-0.241 0.476,-0.28c0.229,-0.053 0.593,-0.128 0.693,-0.014c0.216,0.249 -0.014,0.862 -0.295,1.015c-1.276,0.694 -2.537,1.416 -3.831,2.074c-0.713,0.363 -1.444,0.731 -2.283,0.726c-0.744,-0.004 -0.956,-0.245 -0.69,-0.925c0.214,-0.548 0.532,-1.057 0.82,-1.574c0.222,-0.397 0.47,-0.78 0.756,-1.253c-0.635,-0.06 -0.965,0.316 -1.277,0.583c-0.919,0.788 -1.782,1.642 -2.668,2.469c-0.168,0.157 -0.318,0.362 -0.518,0.449c-0.239,0.104 -0.526,0.144 -0.785,0.121c-0.058,-0.005 -0.085,-0.387 -0.119,-0.597c-0.01,-0.065 0.006,-0.135 0.014,-0.284c-0.627,0.257 -1.199,0.552 -1.806,0.723c-0.592,0.166 -1.218,0.274 -1.831,0.283c-0.646,0.009 -0.932,-0.368 -0.767,-1.01c0.15,-0.589 0.399,-1.165 0.69,-1.7c0.349,-0.644 0.794,-1.234 1.18,-1.859c0.072,-0.116 0.061,-0.284 0.088,-0.428c-0.172,0.012 -0.344,0.019 -0.515,0.04c-0.036,0.004 -0.066,0.056 -0.098,0.087c-0.734,0.722 -1.499,1.417 -2.194,2.175c-0.658,0.719 -1.239,1.51 -1.865,2.259c-0.144,0.173 -0.314,0.345 -0.508,0.451c-0.188,0.102 -0.422,0.117 -0.636,0.17c-0.035,-0.26 -0.092,-0.52 -0.096,-0.781c-0.002,-0.127 0.075,-0.27 0.153,-0.379c1.579,-2.217 3.078,-4.496 4.965,-6.477c1.411,-1.482 2.823,-2.964 4.238,-4.442c0.094,-0.098 0.215,-0.219 0.336,-0.236c0.262,-0.037 0.533,-0.013 0.8,-0.013c-0.081,0.214 -0.106,0.482 -0.252,0.635c-0.597,0.627 -1.245,1.206 -1.848,1.828c-0.908,0.939 -1.796,1.897 -2.689,2.851c-0.245,0.263 -0.476,0.539 -0.714,0.808c0.06,0.08 0.121,0.16 0.181,0.24z" fill="#ffffff" fill-opacity="1"></path></g></g></svg>