<?xml version="1.0" encoding="UTF-8"?>
<svg id="SVGDoc" width="306" height="594" xmlns="http://www.w3.org/2000/svg" version="1.1" xmlns:xlink="http://www.w3.org/1999/xlink" xmlns:avocode="https://avocode.com/" viewBox="0 0 306 594"><defs></defs><desc>Generated with Avocode.</desc><g><g><title>&amp;lt;Path&amp;gt;</title><path d="M132.2942,535.0178c3.433,0.158 5.151,2.099 5.301,5.301c0.075,1.679 0.079,5.834 0,7.513c-0.124,2.712 -1.4,4.221 -3.089,4.877c-1.242,0.481 -2.455,0.479 -5.969,0.479c-3.424,0 -5.822,0.23 -7.582,-1.53c-1.728,-1.727 -1.53,-4.035 -1.53,-7.583c0,-3.465 -0.224,-5.829 1.53,-7.582c1.049,-1.05 2.351,-1.406 3.826,-1.475c1.68,-0.075 5.835,-0.079 7.513,0zM134.9502,550.4978c1.13,-1.135 1.059,-2.668 1.059,-6.423c0,-2.433 -0.01,-2.722 -0.053,-3.683c-0.191,-4.213 -3.368,-3.789 -7.417,-3.789l-0.034,-0.023c-2.437,0 -2.722,0.011 -3.69,0.046c-4.214,0.215 -3.783,3.239 -3.783,7.437c0,3.103 -0.232,5.149 1.049,6.424c1.111,1.114 2.635,1.058 6.434,1.058c3.69,0 5.285,0.103 6.435,-1.047z" fill="#66ccce" fill-opacity="1"></path></g></g></svg>