<?xml version="1.0" encoding="UTF-8"?>
<svg id="SVGDoc" width="306" height="594" xmlns="http://www.w3.org/2000/svg" version="1.1" xmlns:xlink="http://www.w3.org/1999/xlink" xmlns:avocode="https://avocode.com/" viewBox="0 0 306 594"><defs></defs><desc>Generated with Avocode.</desc><g><g><title>&amp;lt;Path&amp;gt;</title><path d="M77.3302,35.7659c0.035,-0.106 0.088,-0.176 0.193,-0.176h1.471c0.106,0 0.176,0.07 0.193,0.176l2.523,11.564c0.018,0.105 -0.035,0.175 -0.14,0.175h-1.489c-0.123,0 -0.175,-0.07 -0.193,-0.175l-0.473,-2.401h-2.365l-0.473,2.401c-0.018,0.105 -0.071,0.175 -0.193,0.175h-1.49c-0.105,0 -0.157,-0.07 -0.14,-0.175zM79.1172,43.3519l-0.841,-4.433h-0.052l-0.877,4.433zM85.7752,47.5049c-0.105,0 -0.175,-0.07 -0.175,-0.175v-9.935c0,-0.07 -0.035,-0.105 -0.105,-0.105h-1.822c-0.105,0 -0.176,-0.07 -0.176,-0.175v-1.349c0,-0.106 0.071,-0.176 0.176,-0.176h5.729c0.105,0 0.175,0.07 0.175,0.176v1.349c0,0.105 -0.07,0.175 -0.175,0.175h-1.822c-0.07,0 -0.105,0.035 -0.105,0.105v9.935c0,0.105 -0.07,0.175 -0.175,0.175zM92.8542,35.7659c0,-0.106 0.07,-0.176 0.175,-0.176h1.525c0.105,0 0.175,0.07 0.175,0.176v4.695c0,0.07 0.035,0.106 0.105,0.106h2.015c0.07,0 0.105,-0.036 0.105,-0.106v-4.695c0,-0.106 0.07,-0.176 0.175,-0.176h1.525c0.105,0 0.175,0.07 0.175,0.176v11.564c0,0.105 -0.07,0.175 -0.175,0.175h-1.525c-0.105,0 -0.175,-0.07 -0.175,-0.175v-4.959c0,-0.07 -0.035,-0.105 -0.105,-0.105h-2.015c-0.07,0 -0.105,0.035 -0.105,0.105v4.959c0,0.105 -0.07,0.175 -0.175,0.175h-1.525c-0.105,0 -0.175,-0.07 -0.175,-0.175zM103.0522,35.7659c0,-0.106 0.07,-0.176 0.175,-0.176h1.524c0.105,0 0.175,0.07 0.175,0.176v9.934c0,0.07 0.036,0.105 0.106,0.105h3.083c0.106,0 0.176,0.07 0.176,0.176v1.349c0,0.105 -0.07,0.175 -0.176,0.175h-4.888c-0.105,0 -0.175,-0.07 -0.175,-0.175zM110.7962,35.7659c0,-0.106 0.07,-0.176 0.175,-0.176h4.889c0.105,0 0.175,0.07 0.175,0.176v1.349c0,0.105 -0.07,0.175 -0.175,0.175h-3.084c-0.07,0 -0.105,0.035 -0.105,0.105v3.136c0,0.071 0.035,0.106 0.105,0.106h2.663c0.106,0 0.176,0.07 0.176,0.175v1.349c0,0.105 -0.07,0.175 -0.176,0.175h-2.663c-0.07,0 -0.105,0.035 -0.105,0.105v3.259c0,0.07 0.035,0.105 0.105,0.105h3.084c0.105,0 0.175,0.07 0.175,0.176v1.349c0,0.105 -0.07,0.175 -0.175,0.175h-4.889c-0.105,0 -0.175,-0.07 -0.175,-0.175zM121.1692,47.5049c-0.105,0 -0.175,-0.07 -0.175,-0.175v-9.935c0,-0.07 -0.035,-0.105 -0.105,-0.105h-1.823c-0.105,0 -0.175,-0.07 -0.175,-0.175v-1.349c0,-0.106 0.07,-0.176 0.175,-0.176h5.73c0.105,0 0.175,0.07 0.175,0.176v1.349c0,0.105 -0.07,0.175 -0.175,0.175h-1.822c-0.07,0 -0.105,0.035 -0.105,0.105v9.935c0,0.105 -0.07,0.175 -0.176,0.175zM128.1602,35.7659c0,-0.106 0.07,-0.176 0.175,-0.176h1.525c0.105,0 0.175,0.07 0.175,0.176v11.564c0,0.105 -0.07,0.175 -0.175,0.175h-1.525c-0.105,0 -0.175,-0.07 -0.175,-0.175zM134.1002,37.2549c0.368,-1.139 1.244,-1.822 2.698,-1.822c1.7,0 2.769,0.876 2.874,2.856c0.017,0.105 -0.018,0.192 -0.123,0.21l-1.419,0.245c-0.105,0.018 -0.193,-0.035 -0.193,-0.157c-0.052,-1.017 -0.403,-1.455 -1.086,-1.455c-0.526,0 -0.806,0.228 -0.946,0.666c-0.088,0.28 -0.123,0.526 -0.123,3.75c0,3.224 0.035,3.469 0.123,3.749c0.14,0.438 0.42,0.666 0.946,0.666c0.683,0 1.034,-0.438 1.086,-1.454c0,-0.123 0.088,-0.175 0.193,-0.158l1.419,0.245c0.105,0.018 0.14,0.106 0.123,0.211c-0.105,1.98 -1.174,2.856 -2.874,2.856c-1.454,0 -2.33,-0.684 -2.698,-1.822c-0.158,-0.491 -0.228,-0.982 -0.228,-4.293c0,-3.312 0.07,-3.802 0.228,-4.293zM147.5252,35.7659c0,-0.106 0.07,-0.176 0.175,-0.176h2.611c2.137,0 3.083,0.964 3.083,3.084c0,1.472 -0.508,2.19 -1.384,2.576v0.035c0.894,0.263 1.525,1.139 1.525,2.716c0,2.646 -1.157,3.504 -3.47,3.504h-2.365c-0.105,0 -0.175,-0.07 -0.175,-0.175zM150.1352,40.5669c1.034,0 1.385,-0.316 1.385,-1.63c0,-1.314 -0.351,-1.647 -1.385,-1.647h-0.63c-0.07,0 -0.105,0.035 -0.105,0.105v3.066c0,0.07 0.035,0.106 0.105,0.106zM150.1352,45.8049c1.122,0 1.507,-0.42 1.507,-1.822c0,-1.402 -0.385,-1.805 -1.507,-1.805h-0.63c-0.07,0 -0.105,0.035 -0.105,0.106v3.416c0,0.07 0.035,0.105 0.105,0.105zM161.8922,47.5049c-0.105,0 -0.157,-0.035 -0.192,-0.123l-1.455,-4.748h-0.893c-0.07,0 -0.105,0.035 -0.105,0.105v4.591c0,0.105 -0.071,0.175 -0.176,0.175h-1.524c-0.105,0 -0.175,-0.07 -0.175,-0.175v-11.564c0,-0.106 0.07,-0.176 0.175,-0.176h2.4c2.12,0 3.4,0.929 3.4,3.54c0,1.559 -0.526,2.54 -1.42,3.048l1.682,5.152c0.035,0.087 0,0.175 -0.087,0.175zM159.9652,37.2899h-0.613c-0.07,0 -0.105,0.035 -0.105,0.105v3.469c0,0.07 0.035,0.106 0.105,0.106h0.613c1.051,0 1.507,-0.421 1.507,-1.84c0,-1.402 -0.456,-1.84 -1.507,-1.84zM167.3762,35.7659c0,-0.106 0.071,-0.176 0.176,-0.176h4.888c0.105,0 0.175,0.07 0.175,0.176v1.349c0,0.105 -0.07,0.175 -0.175,0.175h-3.084c-0.07,0 -0.105,0.035 -0.105,0.105v3.136c0,0.071 0.035,0.106 0.105,0.106h2.664c0.105,0 0.175,0.07 0.175,0.175v1.349c0,0.105 -0.07,0.175 -0.175,0.175h-2.664c-0.07,0 -0.105,0.035 -0.105,0.105v3.259c0,0.07 0.035,0.105 0.105,0.105h3.084c0.105,0 0.175,0.07 0.175,0.176v1.349c0,0.105 -0.07,0.175 -0.175,0.175h-4.888c-0.105,0 -0.176,-0.07 -0.176,-0.175zM181.9902,47.5049c-0.106,0 -0.158,-0.07 -0.176,-0.175l-1.209,-7.657h-0.035l-1.261,7.657c-0.018,0.105 -0.07,0.175 -0.176,0.175h-1.314c-0.105,0 -0.157,-0.07 -0.175,-0.175l-1.84,-11.564c-0.017,-0.106 0.018,-0.176 0.158,-0.176h1.507c0.105,0 0.175,0.053 0.193,0.176l0.858,7.762h0.053l1.279,-7.762c0.017,-0.123 0.087,-0.176 0.193,-0.176h1.033c0.106,0 0.176,0.053 0.193,0.176l1.279,7.762h0.053l0.911,-7.762c0.017,-0.123 0.088,-0.176 0.193,-0.176h1.454c0.14,0 0.175,0.07 0.158,0.176l-1.858,11.564c-0.017,0.105 -0.07,0.175 -0.175,0.175zM189.0162,35.7659c0,-0.106 0.07,-0.176 0.175,-0.176h1.524c0.106,0 0.176,0.07 0.176,0.176v11.564c0,0.105 -0.07,0.175 -0.176,0.175h-1.524c-0.105,0 -0.175,-0.07 -0.175,-0.175zM195.2012,35.7659c0,-0.106 0.07,-0.176 0.175,-0.176h1.857c0.141,0 0.211,0.053 0.246,0.176l2.207,8.235h0.088v-8.235c0,-0.106 0.07,-0.176 0.175,-0.176h1.297c0.105,0 0.175,0.07 0.175,0.176v11.564c0,0.105 -0.07,0.175 -0.175,0.175h-1.735c-0.14,0 -0.21,-0.053 -0.245,-0.175l-2.313,-8.235h-0.105v8.235c0,0.105 -0.07,0.175 -0.175,0.175h-1.297c-0.105,0 -0.175,-0.07 -0.175,-0.175zM205.7492,37.2899c0.386,-1.174 1.349,-1.857 2.821,-1.857c1.717,0 2.768,0.911 2.961,2.786c0.018,0.105 -0.052,0.192 -0.14,0.21l-1.419,0.245c-0.105,0.018 -0.175,-0.035 -0.193,-0.14c-0.088,-0.929 -0.491,-1.402 -1.191,-1.402c-0.509,0 -0.912,0.263 -1.034,0.666c-0.105,0.333 -0.123,0.473 -0.123,3.75c0,3.276 0.018,3.416 0.123,3.749c0.122,0.403 0.56,0.666 1.051,0.666c0.508,0 0.946,-0.263 1.069,-0.666c0.087,-0.298 0.123,-0.473 0.123,-2.68c0,-0.071 -0.036,-0.106 -0.106,-0.106h-0.928c-0.105,0 -0.175,-0.07 -0.175,-0.175v-1.296c0,-0.106 0.07,-0.176 0.175,-0.176h2.663c0.105,0 0.175,0.07 0.175,0.176v0.525c0,3.294 -0.052,3.715 -0.228,4.24c-0.385,1.174 -1.349,1.858 -2.803,1.858c-1.472,0 -2.435,-0.684 -2.821,-1.858c-0.175,-0.525 -0.228,-0.946 -0.228,-4.257c0,-3.312 0.053,-3.732 0.228,-4.258zM226.8182,37.2899c0.385,-1.174 1.349,-1.857 2.821,-1.857c1.454,0 2.418,0.683 2.803,1.857c0.175,0.526 0.175,4.919 0,5.445c-0.385,1.173 -1.349,1.857 -2.803,1.857c-1.472,0 -2.436,-0.684 -2.821,-1.857c-0.175,-0.526 -0.175,-4.919 0,-5.445zM230.6382,37.7979c-0.123,-0.403 -0.509,-0.666 -0.999,-0.666c-0.508,0 -0.894,0.263 -1.016,0.666c-0.106,0.333 -0.106,4.095 0,4.428c0.122,0.403 0.508,0.666 1.016,0.666c0.49,0 0.876,-0.263 0.999,-0.666c0.105,-0.333 0.105,-4.095 0,-4.428zM219.2952,37.2549c0.368,-1.139 1.244,-1.822 2.698,-1.822c1.7,0 2.768,0.876 2.874,2.856c0.017,0.105 -0.018,0.192 -0.123,0.21l-1.419,0.245c-0.106,0.018 -0.193,-0.035 -0.193,-0.157c-0.053,-1.017 -0.403,-1.455 -1.086,-1.455c-0.526,0 -0.806,0.228 -0.947,0.666c-0.087,0.28 -0.122,0.526 -0.122,3.75c0,3.224 0.035,3.469 0.122,3.749c0.141,0.438 0.421,0.666 0.947,0.666c0.683,0 1.033,-0.438 1.086,-1.454c0,-0.123 0.087,-0.175 0.193,-0.158l1.419,0.245c0.105,0.018 0.14,0.106 0.123,0.211c-0.106,1.98 -1.174,2.856 -2.874,2.856c-1.454,0 -2.33,-0.684 -2.698,-1.822c-0.158,-0.491 -0.228,-0.982 -0.228,-4.293c0,-3.312 0.07,-3.802 0.228,-4.293zM103.0522,55.1969c0,-0.063 0.042,-0.105 0.104,-0.105h1.111c0.084,0 0.126,0.032 0.147,0.105l1.321,4.926h0.052v-4.926c0,-0.063 0.042,-0.105 0.105,-0.105h0.775c0.063,0 0.105,0.042 0.105,0.105v6.917c0,0.063 -0.042,0.105 -0.105,0.105h-1.037c-0.084,0 -0.126,-0.032 -0.147,-0.105l-1.383,-4.926h-0.063v4.926c0,0.063 -0.042,0.105 -0.105,0.105h-0.776c-0.062,0 -0.104,-0.042 -0.104,-0.105zM109.0682,58.6559c0,-1.981 0.031,-2.233 0.136,-2.547c0.23,-0.702 0.807,-1.111 1.687,-1.111c0.87,0 1.446,0.409 1.677,1.111c0.105,0.314 0.136,0.566 0.136,2.547c0,1.98 -0.031,2.232 -0.136,2.546c-0.231,0.702 -0.807,1.111 -1.677,1.111c-0.88,0 -1.457,-0.409 -1.687,-1.111c-0.105,-0.314 -0.136,-0.566 -0.136,-2.546zM111.5622,58.6559c0,-1.96 -0.011,-2.044 -0.073,-2.243c-0.074,-0.241 -0.304,-0.398 -0.598,-0.398c-0.304,0 -0.534,0.157 -0.608,0.398c-0.063,0.199 -0.073,0.283 -0.073,2.243c0,1.959 0.01,2.043 0.073,2.242c0.074,0.241 0.304,0.399 0.608,0.399c0.294,0 0.524,-0.158 0.598,-0.399c0.062,-0.199 0.073,-0.283 0.073,-2.242zM115.0002,55.1969c0,-0.063 0.042,-0.105 0.104,-0.105h1.111c0.084,0 0.126,0.032 0.147,0.105l1.321,4.926h0.052v-4.926c0,-0.063 0.042,-0.105 0.105,-0.105h0.775c0.063,0 0.105,0.042 0.105,0.105v6.917c0,0.063 -0.042,0.105 -0.105,0.105h-1.037c-0.084,0 -0.126,-0.032 -0.147,-0.105l-1.383,-4.926h-0.063v4.926c0,0.063 -0.042,0.105 -0.105,0.105h-0.776c-0.062,0 -0.104,-0.042 -0.104,-0.105zM121.0782,59.0429c0,-0.063 0.042,-0.105 0.105,-0.105h2.767c0.063,0 0.105,0.042 0.105,0.105v0.786c0,0.063 -0.042,0.105 -0.105,0.105h-2.767c-0.063,0 -0.105,-0.042 -0.105,-0.105zM127.3882,55.1969c0.021,-0.063 0.052,-0.105 0.115,-0.105h0.881c0.062,0 0.104,0.042 0.115,0.105l1.509,6.917c0.01,0.063 -0.021,0.105 -0.084,0.105h-0.891c-0.073,0 -0.104,-0.042 -0.115,-0.105l-0.283,-1.436h-1.415l-0.283,1.436c-0.01,0.063 -0.042,0.105 -0.115,0.105h-0.891c-0.063,0 -0.094,-0.042 -0.084,-0.105zM128.4572,59.7349l-0.503,-2.652h-0.032l-0.524,2.652zM132.0522,55.1969c0,-0.063 0.042,-0.105 0.105,-0.105h0.911c0.063,0 0.105,0.042 0.105,0.105v5.942c0,0.042 0.021,0.063 0.063,0.063h1.845c0.063,0 0.104,0.042 0.104,0.105v0.807c0,0.063 -0.041,0.105 -0.104,0.105h-2.924c-0.063,0 -0.105,-0.042 -0.105,-0.105zM137.0722,56.0879c0.22,-0.681 0.744,-1.09 1.614,-1.09c1.017,0 1.656,0.524 1.719,1.708c0.01,0.063 -0.011,0.116 -0.073,0.126l-0.849,0.147c-0.063,0.01 -0.116,-0.021 -0.116,-0.095c-0.031,-0.607 -0.241,-0.869 -0.649,-0.869c-0.315,0 -0.482,0.136 -0.566,0.398c-0.053,0.167 -0.074,0.314 -0.074,2.243c0,1.928 0.021,2.075 0.074,2.242c0.084,0.262 0.251,0.399 0.566,0.399c0.408,0 0.618,-0.262 0.649,-0.87c0,-0.074 0.053,-0.105 0.116,-0.095l0.849,0.147c0.062,0.011 0.083,0.063 0.073,0.126c-0.063,1.184 -0.702,1.708 -1.719,1.708c-0.87,0 -1.394,-0.409 -1.614,-1.09c-0.094,-0.293 -0.136,-0.587 -0.136,-2.567c0,-1.981 0.042,-2.275 0.136,-2.568zM142.3552,58.6559c0,-1.981 0.031,-2.233 0.136,-2.547c0.23,-0.702 0.807,-1.111 1.687,-1.111c0.87,0 1.446,0.409 1.677,1.111c0.105,0.314 0.136,0.566 0.136,2.547c0,1.98 -0.031,2.232 -0.136,2.546c-0.231,0.702 -0.807,1.111 -1.677,1.111c-0.88,0 -1.457,-0.409 -1.687,-1.111c-0.105,-0.314 -0.136,-0.566 -0.136,-2.546zM144.8492,58.6559c0,-1.96 -0.011,-2.044 -0.074,-2.243c-0.073,-0.241 -0.304,-0.398 -0.597,-0.398c-0.304,0 -0.534,0.157 -0.608,0.398c-0.063,0.199 -0.073,0.283 -0.073,2.243c0,1.959 0.01,2.043 0.073,2.242c0.074,0.241 0.304,0.399 0.608,0.399c0.293,0 0.524,-0.158 0.597,-0.399c0.063,-0.199 0.074,-0.283 0.074,-2.242zM148.3392,55.1969c0,-0.063 0.042,-0.105 0.105,-0.105h0.911c0.063,0 0.105,0.042 0.105,0.105v2.809c0,0.042 0.021,0.063 0.063,0.063h1.205c0.042,0 0.063,-0.021 0.063,-0.063v-2.809c0,-0.063 0.042,-0.105 0.105,-0.105h0.912c0.063,0 0.105,0.042 0.105,0.105v6.917c0,0.063 -0.042,0.105 -0.105,0.105h-0.912c-0.063,0 -0.105,-0.042 -0.105,-0.105v-2.966c0,-0.042 -0.021,-0.063 -0.063,-0.063h-1.205c-0.042,0 -0.063,0.021 -0.063,0.063v2.966c0,0.063 -0.042,0.105 -0.105,0.105h-0.911c-0.063,0 -0.105,-0.042 -0.105,-0.105zM154.2602,58.6559c0,-1.981 0.032,-2.233 0.137,-2.547c0.23,-0.702 0.807,-1.111 1.687,-1.111c0.87,0 1.446,0.409 1.677,1.111c0.105,0.314 0.136,0.566 0.136,2.547c0,1.98 -0.031,2.232 -0.136,2.546c-0.231,0.702 -0.807,1.111 -1.677,1.111c-0.88,0 -1.457,-0.409 -1.687,-1.111c-0.105,-0.314 -0.137,-0.566 -0.137,-2.546zM156.7552,58.6559c0,-1.96 -0.011,-2.044 -0.074,-2.243c-0.073,-0.241 -0.304,-0.398 -0.597,-0.398c-0.304,0 -0.534,0.157 -0.608,0.398c-0.063,0.199 -0.073,0.283 -0.073,2.243c0,1.959 0.01,2.043 0.073,2.242c0.074,0.241 0.304,0.399 0.608,0.399c0.293,0 0.524,-0.158 0.597,-0.399c0.063,-0.199 0.074,-0.283 0.074,-2.242zM160.2452,55.1969c0,-0.063 0.042,-0.105 0.105,-0.105h0.912c0.062,0 0.104,0.042 0.104,0.105v5.942c0,0.042 0.021,0.063 0.063,0.063h1.845c0.063,0 0.104,0.042 0.104,0.105v0.807c0,0.063 -0.041,0.105 -0.104,0.105h-2.924c-0.063,0 -0.105,-0.042 -0.105,-0.105zM165.2972,55.1969c0,-0.063 0.041,-0.105 0.104,-0.105h0.912c0.063,0 0.105,0.042 0.105,0.105v6.917c0,0.063 -0.042,0.105 -0.105,0.105h-0.912c-0.063,0 -0.104,-0.042 -0.104,-0.105zM168.9022,56.0879c0.22,-0.681 0.744,-1.09 1.614,-1.09c1.016,0 1.656,0.524 1.719,1.708c0.01,0.063 -0.011,0.116 -0.074,0.126l-0.849,0.147c-0.062,0.01 -0.115,-0.021 -0.115,-0.095c-0.031,-0.607 -0.241,-0.869 -0.65,-0.869c-0.314,0 -0.482,0.136 -0.566,0.398c-0.052,0.167 -0.073,0.314 -0.073,2.243c0,1.928 0.021,2.075 0.073,2.242c0.084,0.262 0.252,0.399 0.566,0.399c0.409,0 0.619,-0.262 0.65,-0.87c0,-0.074 0.053,-0.105 0.115,-0.095l0.849,0.147c0.063,0.011 0.084,0.063 0.074,0.126c-0.063,1.184 -0.703,1.708 -1.719,1.708c-0.87,0 -1.394,-0.409 -1.614,-1.09c-0.094,-0.293 -0.136,-0.587 -0.136,-2.567c0,-1.981 0.042,-2.275 0.136,-2.568zM177.7062,55.1969c0,-0.063 0.041,-0.105 0.104,-0.105h1.562c1.279,0 1.844,0.577 1.844,1.845c0,0.88 -0.303,1.31 -0.827,1.54v0.021c0.534,0.158 0.911,0.682 0.911,1.625c0,1.582 -0.691,2.096 -2.075,2.096h-1.415c-0.063,0 -0.104,-0.042 -0.104,-0.105zM179.2672,58.0689c0.618,0 0.828,-0.189 0.828,-0.975c0,-0.786 -0.21,-0.985 -0.828,-0.985h-0.377c-0.042,0 -0.063,0.021 -0.063,0.063v1.834c0,0.042 0.021,0.063 0.063,0.063zM179.2672,61.2019c0.671,0 0.901,-0.251 0.901,-1.09c0,-0.838 -0.23,-1.079 -0.901,-1.079h-0.377c-0.042,0 -0.063,0.021 -0.063,0.063v2.043c0,0.042 0.021,0.063 0.063,0.063zM186.2472,62.2189c-0.063,0 -0.094,-0.021 -0.115,-0.074l-0.87,-2.84h-0.534c-0.042,0 -0.063,0.021 -0.063,0.063v2.746c0,0.063 -0.042,0.105 -0.105,0.105h-0.912c-0.063,0 -0.105,-0.042 -0.105,-0.105v-6.917c0,-0.063 0.042,-0.105 0.105,-0.105h1.436c1.268,0 2.033,0.556 2.033,2.117c0,0.933 -0.314,1.52 -0.849,1.824l1.006,3.081c0.021,0.052 0,0.105 -0.052,0.105zM185.0942,56.1089h-0.366c-0.042,0 -0.063,0.021 -0.063,0.063v2.075c0,0.042 0.021,0.063 0.063,0.063h0.366c0.629,0 0.902,-0.252 0.902,-1.101c0,-0.838 -0.273,-1.1 -0.902,-1.1zM189.4752,55.1969c0,-0.063 0.042,-0.105 0.105,-0.105h2.924c0.063,0 0.105,0.042 0.105,0.105v0.807c0,0.063 -0.042,0.105 -0.105,0.105h-1.844c-0.042,0 -0.063,0.021 -0.063,0.063v1.876c0,0.042 0.021,0.063 0.063,0.063h1.593c0.062,0 0.104,0.041 0.104,0.104v0.807c0,0.063 -0.042,0.105 -0.104,0.105h-1.593c-0.042,0 -0.063,0.021 -0.063,0.063v1.949c0,0.042 0.021,0.063 0.063,0.063h1.844c0.063,0 0.105,0.042 0.105,0.105v0.807c0,0.063 -0.042,0.105 -0.105,0.105h-2.924c-0.063,0 -0.105,-0.042 -0.105,-0.105zM198.1642,62.2189c-0.063,0 -0.095,-0.042 -0.105,-0.105l-0.723,-4.58h-0.021l-0.755,4.58c-0.01,0.063 -0.042,0.105 -0.105,0.105h-0.786c-0.062,0 -0.094,-0.042 -0.104,-0.105l-1.101,-6.917c-0.01,-0.063 0.011,-0.105 0.094,-0.105h0.902c0.063,0 0.105,0.032 0.115,0.105l0.514,4.643h0.031l0.765,-4.643c0.011,-0.073 0.052,-0.105 0.115,-0.105h0.619c0.063,0 0.104,0.032 0.115,0.105l0.765,4.643h0.031l0.545,-4.643c0.011,-0.073 0.053,-0.105 0.116,-0.105h0.87c0.083,0 0.104,0.042 0.094,0.105l-1.111,6.917c-0.01,0.063 -0.042,0.105 -0.105,0.105zM201.9162,60.4479c0,-0.063 0.021,-0.105 0.084,-0.116l0.88,-0.146c0.074,-0.011 0.116,0.031 0.116,0.094c0.031,0.755 0.251,1.048 0.733,1.048c0.451,0 0.671,-0.241 0.671,-1.017c0,-0.765 -0.147,-1.016 -0.702,-1.236l-0.43,-0.168c-0.985,-0.388 -1.279,-0.901 -1.279,-2.012c0,-1.226 0.556,-1.897 1.73,-1.897c1.173,0 1.687,0.629 1.75,1.74c0,0.063 -0.032,0.094 -0.094,0.115l-0.839,0.126c-0.063,0.01 -0.115,-0.021 -0.115,-0.084c-0.021,-0.587 -0.21,-0.912 -0.671,-0.912c-0.44,0 -0.65,0.273 -0.65,0.86c0,0.66 0.126,0.859 0.692,1.079l0.43,0.168c0.932,0.366 1.299,0.87 1.299,2.085c0,1.404 -0.471,2.138 -1.823,2.138c-1.153,0 -1.75,-0.618 -1.782,-1.865zM232.1082,46.1919c0.098,0 0.163,0.054 0.163,0.135v1.173c0,0.08 -0.065,0.134 -0.163,0.134h-4.956c-0.098,0 -0.163,-0.054 -0.163,-0.134v-1.173c0,-0.081 0.065,-0.135 0.163,-0.135z" fill="#ffffff" fill-opacity="1"></path></g></g></svg>