<?xml version="1.0" encoding="UTF-8"?>
<svg id="SVGDoc" width="306" height="594" xmlns="http://www.w3.org/2000/svg" version="1.1" xmlns:xlink="http://www.w3.org/1999/xlink" xmlns:avocode="https://avocode.com/" viewBox="0 0 306 594"><defs></defs><desc>Generated with Avocode.</desc><g><g><title>&amp;lt;Path&amp;gt;</title><path d="M235.2491,35.4844c0.922,0 1.631,0.717 1.631,1.631c0,0.922 -0.709,1.639 -1.631,1.639c-0.922,0 -1.631,-0.717 -1.631,-1.639c0,-0.914 0.709,-1.631 1.631,-1.631zM235.2491,35.8174c-0.726,0 -1.281,0.555 -1.281,1.298c0,0.751 0.555,1.306 1.281,1.306c0.726,0 1.281,-0.555 1.281,-1.306c0,-0.743 -0.555,-1.298 -1.281,-1.298zM234.6341,38.0114c-0.034,0 -0.06,-0.017 -0.06,-0.06v-1.69c0,-0.043 0.026,-0.06 0.06,-0.06h0.709c0.418,0 0.666,0.196 0.666,0.555c0,0.256 -0.128,0.427 -0.342,0.512l0.359,0.683c0.017,0.035 0,0.06 -0.043,0.06h-0.307c-0.034,0 -0.06,-0.017 -0.077,-0.06l-0.333,-0.631h-0.248c-0.025,0 -0.034,0.017 -0.034,0.034v0.597c0,0.043 -0.026,0.06 -0.06,0.06zM235.3431,36.5514h-0.325c-0.025,0 -0.034,0.009 -0.034,0.034v0.342c0,0.025 0.009,0.034 0.034,0.034h0.325c0.179,0 0.273,-0.06 0.273,-0.205c0,-0.137 -0.094,-0.205 -0.273,-0.205z" fill="#ffffff" fill-opacity="1"></path></g></g></svg>