<?xml version="1.0" encoding="UTF-8"?>
<svg id="SVGDoc" width="306" height="594" xmlns="http://www.w3.org/2000/svg" version="1.1" xmlns:xlink="http://www.w3.org/1999/xlink" xmlns:avocode="https://avocode.com/" viewBox="0 0 306 594"><defs></defs><desc>Generated with Avocode.</desc><g><g><title>&amp;lt;Path&amp;gt;</title><path d="M170.6326,191.6535c-0.383,0.522 -0.653,1.132 -0.933,1.722c-0.737,1.553 -1.571,3.04 -2.506,4.491c-1.238,1.92 -2.584,3.746 -4.011,5.521c-0.617,0.769 -1.186,1.588 -1.881,2.28c-0.437,0.435 -1.032,0.779 -1.618,0.981c-0.838,0.289 -1.38,-0.075 -1.468,-0.952c-0.127,-1.283 0.111,-2.483 0.774,-3.649c1.66,-2.917 4.039,-5.173 6.507,-7.359c1.336,-1.184 2.717,-2.32 4.023,-3.536c0.342,-0.318 0.496,-0.846 0.715,-1.289c0.773,-1.565 1.279,-3.219 1.599,-4.931c0.161,-0.861 0.378,-1.722 0.429,-2.592c0.088,-1.521 -0.15,-3.012 -1.002,-4.313c-0.486,-0.742 -1.17,-1.285 -2.112,-1.404c-1.447,-0.183 -2.789,0.109 -4.082,0.775c-1.356,0.698 -2.613,1.535 -3.714,2.58c-0.496,0.471 -0.892,1.057 -1.286,1.623c-1.43,2.054 -1.192,4.689 0.637,6.329c0.818,0.733 1.835,1.218 2.952,1.512c1.337,0.351 2.682,0.427 4.04,0.49c0.418,0.02 0.825,0.046 1.162,-0.291c0.305,-0.305 0.551,-0.109 0.734,0.162c0.242,0.356 0.15,0.762 -0.202,0.925c-0.851,0.393 -1.742,0.347 -2.648,0.255c-1.674,-0.168 -3.279,-0.623 -4.83,-1.23c-1.291,-0.504 -2.279,-1.399 -2.924,-2.675c-0.757,-1.498 -0.83,-3.047 -0.31,-4.582c0.626,-1.846 1.901,-3.228 3.525,-4.289c0.747,-0.488 1.469,-1.025 2.254,-1.443c1.616,-0.862 3.31,-1.415 5.181,-0.946c1.584,0.396 2.471,1.488 2.992,2.96c0.698,1.972 0.609,3.979 0.18,5.968c-0.331,1.532 -0.82,3.03 -1.255,4.601c0.129,-0.046 0.309,-0.068 0.44,-0.161c0.827,-0.585 1.662,-1.161 2.453,-1.792c0.301,-0.24 0.484,-0.624 0.737,-0.929c0.222,-0.266 0.443,-0.542 0.707,-0.763c0.418,-0.349 0.91,-0.615 1.302,-0.989c0.517,-0.492 1.52,-0.706 2.006,-0.263c0.246,0.223 0.367,0.608 0.487,0.941c0.124,0.345 0.189,0.665 0.69,0.493c0.159,-0.054 0.372,0.051 0.559,0.083c-0.089,0.206 -0.176,0.414 -0.272,0.618c-0.017,0.035 -0.073,0.069 -0.115,0.074c-0.751,0.081 -0.96,0.75 -1.362,1.223c-0.83,0.98 -1.671,1.932 -2.875,2.517c-0.672,0.327 -1.305,0.175 -1.957,0.146c-0.11,-0.005 -0.251,-0.252 -0.301,-0.411c-0.083,-0.259 -0.102,-0.538 -0.163,-0.9c-1.135,0.798 -2.435,1.295 -3.258,2.419zM168.5586,193.3055c-0.085,0.034 -0.179,0.055 -0.253,0.105c-0.114,0.077 -0.218,0.171 -0.32,0.264c-1.707,1.567 -3.534,2.988 -5.094,4.736c-1.347,1.51 -2.681,2.973 -3.555,4.826c-0.353,0.749 -0.359,1.457 -0.21,2.213c0.054,0.27 0.194,0.451 0.472,0.206c0.771,-0.679 1.617,-1.298 2.28,-2.072c1.115,-1.3 2.127,-2.69 3.151,-4.065c0.559,-0.751 1.066,-1.541 1.573,-2.329c0.358,-0.555 0.691,-1.127 1.007,-1.707c0.372,-0.681 0.714,-1.378 1.069,-2.069c-0.04,-0.036 -0.08,-0.072 -0.12,-0.108zM176.4436,187.0525c-0.079,-0.019 -0.224,0.062 -0.275,0.14c-0.487,0.729 -1.149,1.366 -1.268,2.415c1.61,-0.036 2.431,-1.215 3.422,-2.082c-0.672,-0.173 -1.273,-0.335 -1.879,-0.473zM178.3336,186.4295c0.177,-0.092 0.441,-0.198 0.475,-0.343c0.048,-0.209 -0.076,-0.458 -0.127,-0.69c-0.18,0.088 -0.361,0.172 -0.54,0.263c-0.123,0.063 -0.269,0.11 -0.355,0.207c-0.122,0.14 -0.199,0.321 -0.295,0.484c0.16,0.06 0.32,0.121 0.374,0.142c0.242,-0.029 0.372,-0.013 0.468,-0.063z" fill="#ffffff" fill-opacity="1"></path></g></g></svg>