<?xml version="1.0" encoding="UTF-8"?>
<svg id="SVGDoc" width="306" height="594" xmlns="http://www.w3.org/2000/svg" version="1.1" xmlns:xlink="http://www.w3.org/1999/xlink" xmlns:avocode="https://avocode.com/" viewBox="0 0 306 594"><defs></defs><desc>Generated with Avocode.</desc><g><g><title>&amp;lt;Path&amp;gt;</title><path d="M249.2409,189.2317c0.662,-0.251 1.318,-0.6 1.867,-1.042c0.516,-0.416 0.886,-1.013 1.327,-1.524c0.614,-0.71 1.228,-1.418 1.853,-2.117c0.24,-0.268 0.572,-0.199 0.69,0.151c0.244,0.724 0.557,1.446 0.648,2.192c0.046,0.377 -0.294,0.828 -0.527,1.204c-0.248,0.4 -0.576,0.75 -0.922,1.188c1.117,0.401 2.025,0.144 2.873,-0.457c0.451,-0.319 0.875,-0.676 1.336,-0.978c0.159,-0.104 0.526,-0.181 0.569,-0.117c0.165,0.247 0.267,0.565 -0.061,0.798c-0.619,0.441 -1.239,0.881 -1.869,1.305c-0.859,0.579 -1.811,0.62 -2.803,0.489c-1.009,-0.133 -1.343,-0.718 -0.835,-1.736c0.205,-0.41 0.448,-0.827 0.767,-1.148c0.407,-0.409 0.3,-0.774 0.048,-1.292c-0.435,0.457 -0.85,0.871 -1.239,1.307c-0.437,0.492 -0.781,1.094 -1.29,1.486c-0.649,0.501 -1.401,0.884 -2.147,1.237c-1.38,0.654 -2.723,0.512 -4.05,-0.247c-0.352,-0.2 -0.44,-0.416 -0.473,-0.753c-0.033,-0.341 -0.218,-0.46 -0.516,-0.256c-1.141,0.78 -2.415,1.24 -3.752,1.529c-0.317,0.069 -0.689,0.08 -0.992,-0.018c-1.091,-0.35 -1.807,-1.061 -1.885,-2.388c-0.231,0.186 -0.38,0.278 -0.493,0.403c-0.766,0.853 -1.519,1.717 -2.289,2.566c-0.132,0.145 -0.307,0.272 -0.487,0.346c-0.577,0.235 -0.747,0.106 -0.748,-0.532c-0.001,-0.084 0.013,-0.168 0.028,-0.339c-0.445,0.118 -0.813,0.228 -1.186,0.312c-0.407,0.091 -0.817,0.214 -1.229,0.225c-1.108,0.03 -1.576,-0.455 -1.571,-1.547c0.001,-0.136 0,-0.272 0,-0.462c-0.797,0.37 -1.555,0.729 -2.319,1.074c-0.773,0.349 -1.582,0.466 -2.418,0.296c-0.172,-0.036 -0.416,-0.12 -0.472,-0.248c-0.213,-0.494 -0.465,-0.25 -0.76,-0.115c-0.669,0.306 -1.334,0.647 -2.035,0.852c-1.04,0.306 -1.655,-0.333 -1.437,-1.418c0.175,-0.871 0.708,-1.546 1.265,-2.196c1.002,-1.168 2.243,-2.046 3.597,-2.741c0.542,-0.278 1.19,-0.394 1.804,-0.47c0.25,-0.031 0.72,0.194 0.77,0.386c0.092,0.358 -0.047,0.776 -0.098,1.169c-0.004,0.029 -0.073,0.051 -0.114,0.074c-0.241,0.137 -0.483,0.273 -0.725,0.41v-0.903c-0.958,-0.084 -1.81,0.415 -2.633,0.968c-0.884,0.594 -1.657,1.318 -2.276,2.184c-0.261,0.367 -0.447,0.793 -0.627,1.21c-0.134,0.31 0.034,0.44 0.341,0.367c0.29,-0.068 0.584,-0.141 0.857,-0.257c0.476,-0.201 0.964,-0.398 1.397,-0.675c0.25,-0.159 0.481,-0.443 0.582,-0.722c0.281,-0.774 0.86,-1.298 1.468,-1.767c0.205,-0.159 0.635,-0.026 0.962,-0.027c-0.014,0.304 0.08,0.677 -0.062,0.896c-0.357,0.548 -0.825,1.022 -1.24,1.532c-0.103,0.127 -0.175,0.279 -0.262,0.419c0.17,0.044 0.349,0.147 0.506,0.121c0.448,-0.077 0.905,-0.161 1.327,-0.325c0.641,-0.248 1.245,-0.592 1.884,-0.849c1.456,-0.586 1.986,-1.971 2.778,-3.137c0.658,-0.968 1.334,-1.926 2.027,-2.87c0.678,-0.924 1.327,-1.881 2.104,-2.716c0.588,-0.632 1.344,-1.115 2.053,-1.626c0.315,-0.227 0.748,-0.035 0.797,0.353c0.048,0.383 0.061,0.805 -0.048,1.169c-0.493,1.646 -1.197,3.199 -2.335,4.51c-0.914,1.052 -1.863,2.079 -2.988,2.916c-0.771,0.574 -1.552,1.139 -2.367,1.646c-0.498,0.309 -0.437,0.765 -0.346,1.15c0.089,0.374 0.517,0.444 0.866,0.324c0.735,-0.252 1.489,-0.484 2.174,-0.841c1.648,-0.859 2.697,-2.364 3.918,-3.7c1.602,-1.755 3.344,-3.382 5.03,-5.061c0.488,-0.486 0.972,-0.978 1.489,-1.432c0.442,-0.388 0.909,-0.758 1.409,-1.064c0.16,-0.097 0.462,0.037 0.699,0.065c-0.057,0.224 -0.046,0.509 -0.183,0.662c-0.597,0.664 -1.221,1.307 -1.872,1.92c-0.214,0.202 -0.566,0.251 -0.806,0.434c-0.454,0.346 -0.894,0.716 -1.301,1.115c-0.886,0.869 -1.744,1.765 -2.621,2.643c-0.274,0.274 -0.592,0.506 -0.848,0.794c-0.117,0.13 -0.134,0.35 -0.197,0.529c0.184,-0.026 0.398,0.001 0.545,-0.086c0.766,-0.451 1.482,-0.999 2.279,-1.379c0.589,-0.28 1.267,-0.423 1.921,-0.501c0.585,-0.07 0.776,0.2 0.767,0.802c-0.013,0.94 -0.5,1.593 -1.542,1.975c-0.862,0.316 -1.738,0.594 -2.615,0.868c-0.717,0.225 -0.985,0.473 -0.928,0.928c0.06,0.476 0.63,0.959 1.196,0.957c0.953,-0.004 1.811,-0.369 2.609,-0.84c0.751,-0.444 1.485,-0.932 2.159,-1.484c0.379,-0.31 0.622,-0.786 0.924,-1.189c0.743,-0.992 1.698,-1.649 2.928,-1.894c0.626,-0.125 0.909,0.074 0.781,0.714c-0.135,0.675 -0.399,1.324 -0.614,1.982c-0.345,1.058 -1.097,1.779 -2.107,2.397c0.891,0.61 1.64,0.202 2.341,-0.063zM232.1969,186.8067c1.129,-1.024 2.406,-1.861 3.431,-3.025c0.867,-0.985 1.576,-2.03 2.022,-3.26c0.13,-0.36 0.316,-0.7 0.438,-1.062c0.043,-0.128 -0.027,-0.295 -0.046,-0.444c-0.142,0.057 -0.328,0.074 -0.418,0.176c-1.008,1.132 -2.037,2.249 -2.986,3.43c-0.631,0.787 -1.149,1.666 -1.707,2.511c-0.331,0.501 -0.639,1.016 -0.958,1.526zM248.7599,185.3547c-1.177,0.026 -2.638,1.727 -2.822,3.309c1.589,-0.664 2.001,-2.104 2.822,-3.309zM239.5689,186.8857c1.048,-0.3 2.139,-0.503 3.032,-1.197c0.2,-0.156 0.286,-0.46 0.424,-0.696c-0.229,0.046 -0.459,0.088 -0.686,0.14c-0.09,0.02 -0.179,0.052 -0.26,0.095c-0.875,0.474 -1.749,0.951 -2.623,1.428c0.038,0.076 0.075,0.153 0.113,0.23zM238.3629,186.3407c0.016,0.015 0.035,0.046 0.046,0.043c0.033,-0.007 0.063,-0.028 0.094,-0.043c-0.016,-0.016 -0.031,-0.031 -0.05,-0.05c-0.029,0.016 -0.06,0.033 -0.09,0.05z" fill="#ffffff" fill-opacity="1"></path></g></g></svg>