<?xml version="1.0" encoding="UTF-8"?>
<svg id="SVGDoc" width="306" height="594" xmlns="http://www.w3.org/2000/svg" version="1.1" xmlns:xlink="http://www.w3.org/1999/xlink" xmlns:avocode="https://avocode.com/" viewBox="0 0 306 594"><defs></defs><desc>Generated with Avocode.</desc><g><g><title>&amp;lt;Path&amp;gt;</title><path d="M59.0675,187.3155c-1.347,1.869 -3.095,3.341 -5.045,4.472c-1.688,0.979 -2.392,2.301 -2.571,4.144c-0.11,1.144 -0.455,2.268 -0.737,3.391c-0.055,0.218 -0.303,0.388 -0.462,0.58c-0.115,-0.254 -0.35,-0.521 -0.325,-0.76c0.119,-1.152 0.324,-2.294 0.464,-3.443c0.052,-0.434 0.012,-0.88 0.015,-1.32c-0.418,0.091 -0.844,0.155 -1.251,0.28c-0.512,0.158 -1.005,0.375 -1.513,0.548c-0.119,0.041 -0.264,0.008 -0.397,0.009c0.076,-0.134 0.12,-0.318 0.235,-0.395c0.726,-0.487 1.454,-0.976 2.21,-1.413c0.805,-0.465 1.324,-1.077 1.504,-2.025c0.318,-1.677 0.715,-3.34 1.069,-5.011c0.03,-0.14 -0.018,-0.297 -0.029,-0.447c-0.132,0.041 -0.281,0.054 -0.393,0.126c-0.662,0.431 -1.315,0.877 -1.973,1.314c-0.364,0.242 -0.749,0.682 -1.16,0.144c-0.377,-0.494 0.059,-0.842 0.374,-1.153c0.965,-0.953 1.929,-1.909 2.929,-2.825c1.017,-0.933 1.843,-1.977 2.269,-3.311c0.118,-0.367 0.23,-0.852 0.769,-0.283c0.097,0.103 0.572,0.023 0.723,-0.125c1.975,-1.94 3.925,-3.905 5.439,-6.247c0.107,-0.166 0.227,-0.333 0.286,-0.518c0.115,-0.354 0.002,-0.595 -0.406,-0.453c-0.424,0.148 -0.845,0.332 -1.228,0.564c-2.801,1.691 -5.212,3.843 -7.483,6.19c-1.583,1.636 -2.943,3.431 -4.281,5.254c-0.245,0.335 -0.398,0.739 -0.648,1.069c-0.123,0.164 -0.37,0.234 -0.561,0.347c0.02,-0.194 -0.024,-0.429 0.07,-0.575c0.958,-1.478 1.858,-3.003 2.928,-4.396c2.928,-3.812 6.302,-7.148 10.596,-9.438c0.148,-0.079 0.295,-0.164 0.45,-0.228c0.92,-0.383 1.289,-0.345 1.77,0.176c0.403,0.436 0.443,1.094 -0.05,1.789c-1.009,1.424 -2.007,2.868 -3.144,4.186c-1.457,1.688 -3.046,3.261 -4.578,4.884c-0.02,0.02 -0.046,0.036 -0.06,0.06c-0.135,0.226 -0.268,0.453 -0.402,0.68c0.269,-0.036 0.541,-0.057 0.806,-0.111c0.992,-0.206 1.972,-0.496 2.974,-0.617c1.354,-0.164 2.243,0.636 2.176,2.001c-0.169,0.973 -0.693,1.96 -1.359,2.886zM58.5645,183.5495c-0.333,-0.032 -0.698,-0.061 -1.007,0.039c-1.041,0.336 -2.085,0.68 -3.08,1.129c-0.355,0.16 -0.731,0.588 -0.824,0.961c-0.415,1.669 -0.732,3.362 -1.078,5.048c-0.021,0.1 -0.004,0.296 0.032,0.305c0.118,0.03 0.284,0.041 0.377,-0.022c2.12,-1.427 4.072,-3.044 5.562,-5.144c0.317,-0.446 0.472,-1.006 0.701,-1.513c-0.044,-0.484 -0.245,-0.762 -0.683,-0.803z" fill="#ffffff" fill-opacity="1"></path></g></g></svg>