<?xml version="1.0" encoding="UTF-8"?>
<svg id="SVGDoc" width="306" height="594" xmlns="http://www.w3.org/2000/svg" version="1.1" xmlns:xlink="http://www.w3.org/1999/xlink" xmlns:avocode="https://avocode.com/" viewBox="0 0 306 594"><defs></defs><desc>Generated with Avocode.</desc><g><g><title>&amp;lt;Path&amp;gt;</title><path d="M74.9407,183.3014c-0.499,1.405 -1.174,2.746 -1.727,4.132c-0.721,1.806 -0.616,3.658 -0.155,5.499c0.167,0.669 0.748,0.924 1.41,0.627c0.509,-0.229 1.025,-0.518 1.425,-0.898c1.094,-1.044 2.13,-2.15 3.187,-3.233c0.114,-0.117 0.198,-0.273 0.328,-0.363c0.093,-0.065 0.241,-0.053 0.364,-0.075c0.007,0.133 0.071,0.306 0.011,0.394c-1.301,1.904 -2.573,3.846 -4.681,4.984c-1.392,0.752 -2.582,0.274 -3.078,-1.226c-0.174,-0.53 -0.225,-1.099 -0.345,-1.647c-0.034,-0.155 -0.112,-0.301 -0.17,-0.45c-0.153,0.098 -0.352,0.162 -0.451,0.299c-0.611,0.845 -1.185,1.718 -1.804,2.557c-0.283,0.383 -0.604,0.758 -0.973,1.053c-0.787,0.629 -1.697,0.36 -2.04,-0.583c-0.154,-0.423 -0.233,-0.873 -0.356,-1.308c-0.066,-0.233 -0.152,-0.461 -0.229,-0.691c-0.202,0.166 -0.415,0.322 -0.605,0.501c-0.511,0.483 -0.974,1.023 -1.525,1.452c-0.783,0.609 -1.576,0.279 -1.754,-0.721c-0.123,-0.69 -0.13,-1.399 -0.203,-2.099c-0.024,-0.234 -0.094,-0.464 -0.143,-0.696c-0.195,0.177 -0.435,0.325 -0.576,0.538c-0.668,1.004 -1.302,2.032 -1.968,3.038c-0.103,0.156 -0.312,0.241 -0.472,0.359c0,-0.213 -0.07,-0.462 0.014,-0.635c0.575,-1.187 1.173,-2.363 1.783,-3.533c0.821,-1.577 1.658,-3.145 2.488,-4.717c0.066,-0.124 0.097,-0.293 0.199,-0.368c0.188,-0.139 0.416,-0.223 0.627,-0.329c0.083,0.218 0.268,0.457 0.23,0.652c-0.131,0.66 -0.394,1.296 -0.511,1.958c-0.26,1.471 -0.464,2.951 -0.686,4.428c-0.016,0.11 -0.032,0.242 0.012,0.336c0.116,0.243 0.217,0.591 0.414,0.668c0.177,0.069 0.56,-0.1 0.702,-0.281c1.121,-1.431 2.118,-2.913 2.241,-4.831c0.214,-3.353 1.159,-6.495 2.961,-9.345c0.45,-0.712 1.019,-1.351 1.562,-1.999c0.289,-0.345 0.661,-0.517 1.131,-0.287c0.464,0.226 0.473,0.641 0.375,1.019c-0.291,1.115 -0.53,2.261 -0.981,3.313c-1.178,2.745 -2.443,5.453 -3.703,8.162c-0.744,1.6 -0.427,3.204 -0.104,4.812c0.082,0.408 0.413,0.482 0.7,0.197c0.378,-0.375 0.74,-0.78 1.033,-1.223c0.795,-1.199 1.594,-2.399 2.302,-3.649c0.34,-0.599 0.566,-1.296 0.689,-1.977c0.507,-2.813 1.158,-5.58 2.352,-8.192c0.234,-0.511 0.489,-1.027 0.827,-1.472c0.191,-0.252 0.582,-0.525 0.859,-0.502c0.429,0.037 0.458,0.5 0.444,0.884c-0.006,0.141 -0.011,0.282 -0.017,0.423c0.043,0.014 0.086,0.028 0.129,0.042c-0.508,1.67 -0.959,3.36 -1.542,5.003zM67.5907,185.4154c0.135,-0.118 0.325,-0.211 0.398,-0.36c0.486,-0.984 0.976,-1.968 1.406,-2.977c0.396,-0.93 0.731,-1.887 1.063,-2.843c0.063,-0.181 -0.015,-0.412 -0.029,-0.62c-0.146,0.11 -0.331,0.192 -0.432,0.335c-1.286,1.806 -2.007,3.848 -2.501,6.038c0.026,0.119 0.06,0.273 0.095,0.427z" fill="#ffffff" fill-opacity="1"></path></g></g></svg>