<?xml version="1.0" encoding="UTF-8"?>
<svg id="SVGDoc" width="306" height="594" xmlns="http://www.w3.org/2000/svg" version="1.1" xmlns:xlink="http://www.w3.org/1999/xlink" xmlns:avocode="https://avocode.com/" viewBox="0 0 306 594"><defs></defs><desc>Generated with Avocode.</desc><g><g><title>&amp;lt;Path&amp;gt;</title><path d="M111.9522,191.254c0.005,-0.182 -0.061,-0.366 -0.094,-0.548c-0.165,0.074 -0.34,0.131 -0.492,0.225c-0.951,0.594 -1.851,1.29 -2.856,1.768c-1.029,0.49 -2.086,-0.005 -2.442,-1.111c-0.3,-0.93 -0.392,-1.927 -0.582,-2.893c-0.035,-0.182 -0.097,-0.359 -0.146,-0.538c-0.166,0.132 -0.381,0.232 -0.49,0.401c-0.431,0.661 -0.812,1.355 -1.242,2.017c-0.609,0.938 -1.217,1.88 -1.886,2.775c-0.192,0.256 -0.618,0.516 -0.896,0.477c-0.27,-0.038 -0.566,-0.418 -0.707,-0.716c-0.15,-0.317 -0.169,-0.713 -0.179,-1.076c-0.033,-1.244 -0.031,-2.488 -0.056,-3.731c-0.003,-0.177 -0.082,-0.352 -0.125,-0.528c-0.138,0.118 -0.321,0.21 -0.404,0.358c-0.731,1.305 -1.435,2.624 -2.163,3.93c-0.577,1.035 -1.157,2.07 -1.779,3.078c-0.141,0.228 -0.459,0.345 -0.696,0.513c-0.117,-0.271 -0.341,-0.544 -0.334,-0.811c0.048,-1.724 0.078,-3.454 0.247,-5.168c0.218,-2.22 0.533,-4.433 0.861,-6.64c0.19,-1.284 0.489,-2.551 0.727,-3.828c0.028,-0.147 -0.02,-0.308 -0.033,-0.462c-0.15,0.052 -0.341,0.063 -0.442,0.163c-0.863,0.853 -1.709,1.724 -2.562,2.587c-0.423,0.428 -0.42,0.839 -0.102,1.361c1.265,2.079 1.569,4.358 1.068,6.697c-0.468,2.186 -1.534,4.125 -3.006,5.809c-1.257,1.44 -2.706,2.652 -4.535,3.319c-0.449,0.163 -0.918,0.298 -1.388,0.372c-1.523,0.242 -2.657,-0.793 -2.681,-2.405c-0.022,-1.52 0.564,-2.869 1.196,-4.198c1.543,-3.246 3.825,-5.983 6.065,-8.747c0.337,-0.417 0.702,-0.812 1.017,-1.245c0.093,-0.128 0.059,-0.349 0.083,-0.528c-0.199,-0.009 -0.451,-0.101 -0.586,-0.013c-0.446,0.291 -0.845,0.655 -1.272,0.977c-0.358,0.271 -0.711,0.563 -1.107,0.765c-0.171,0.087 -0.445,-0.029 -0.672,-0.053c0.079,-0.19 0.11,-0.43 0.247,-0.56c0.47,-0.449 0.971,-0.865 1.471,-1.282c0.76,-0.633 0.86,-1.033 0.456,-1.909c-0.306,-0.664 -0.623,-1.325 -0.913,-1.996c-0.7,-1.618 0.106,-3.252 1.268,-4.037c0.974,-0.659 2.029,-1.237 3.119,-1.673c1.223,-0.489 2.526,-0.779 3.794,-1.154c0.081,-0.024 0.167,-0.046 0.25,-0.046c0.592,-0.002 1.248,-0.098 1.608,0.509c0.342,0.575 0.02,1.135 -0.321,1.568c-0.927,1.173 -1.896,2.313 -2.888,3.431c-1.05,1.183 -2.146,2.325 -3.22,3.487c-0.095,0.103 -0.206,0.21 -0.248,0.336c-0.048,0.146 -0.027,0.315 -0.036,0.473c0.178,0 0.388,0.06 0.525,-0.015c0.216,-0.117 0.391,-0.316 0.57,-0.494c1.241,-1.237 2.478,-2.478 3.716,-3.718c0.06,-0.06 0.11,-0.13 0.173,-0.186c0.299,-0.264 0.584,-0.57 1.029,-0.239c0.418,0.312 0.268,0.694 0.151,1.073c-0.224,0.728 -0.515,1.441 -0.665,2.183c-0.43,2.13 -0.862,4.264 -1.183,6.412c-0.283,1.9 -0.419,3.821 -0.613,5.733c-0.037,0.366 -0.055,0.735 -0.059,1.102c-0.001,0.125 0.07,0.25 0.108,0.376c0.087,-0.092 0.196,-0.171 0.256,-0.277c0.962,-1.696 1.921,-3.392 2.872,-5.094c0.536,-0.961 1.033,-1.944 1.598,-2.887c0.128,-0.213 0.463,-0.302 0.702,-0.447c0.075,0.247 0.236,0.504 0.21,0.741c-0.085,0.786 -0.318,1.562 -0.345,2.346c-0.049,1.41 0.003,2.824 0.035,4.236c0.004,0.172 0.142,0.34 0.218,0.51c0.169,-0.116 0.394,-0.195 0.499,-0.353c0.951,-1.436 1.878,-2.888 2.819,-4.331c0.184,-0.283 0.372,-0.571 0.604,-0.814c0.636,-0.669 1.188,-0.545 1.359,0.353c0.157,0.828 0.152,1.685 0.267,2.523c0.072,0.527 0.215,1.047 0.358,1.561c0.148,0.531 0.549,0.677 1.058,0.608c1.569,-0.212 4.019,-2.452 4.231,-4.174c0.41,-3.333 1.038,-6.643 1.676,-9.944c0.299,-1.541 0.804,-3.046 1.273,-4.549c0.157,-0.499 0.444,-0.982 0.77,-1.395c0.179,-0.226 0.598,-0.441 0.846,-0.385c0.241,0.055 0.519,0.44 0.573,0.72c0.106,0.547 0.144,1.131 0.075,1.684c-0.559,4.453 -1.65,8.756 -3.586,12.834c-0.413,0.871 -0.661,1.875 -0.744,2.838c-0.283,3.267 -0.457,6.544 -0.671,9.818c-0.011,0.169 -0.03,0.347 0.012,0.507c0.045,0.169 0.157,0.321 0.24,0.48c0.163,-0.088 0.393,-0.134 0.479,-0.271c0.464,-0.74 0.995,-1.461 1.307,-2.264c0.498,-1.283 0.854,-2.623 1.243,-3.946c0.163,-0.559 0.043,-0.933 -0.635,-1.135c-0.394,-0.117 -0.831,-0.536 -0.988,-0.925c-0.582,-1.448 -0.189,-2.784 0.768,-3.946c0.602,-0.732 1.449,-0.565 1.762,0.337c0.174,0.498 0.185,1.052 0.302,1.573c0.039,0.17 0.151,0.361 0.289,0.454c0.065,0.044 0.308,-0.089 0.408,-0.199c1.537,-1.688 2.838,-3.488 3.27,-5.823c0.213,-1.153 0.681,-2.261 1.061,-3.381c0.142,-0.418 0.401,-0.809 0.926,-0.671c0.595,0.158 0.571,0.703 0.443,1.12c-0.413,1.345 -0.779,2.723 -1.38,3.986c-1.059,2.23 -1.113,4.464 -0.396,6.759c0.458,1.466 1.678,1.885 2.81,0.864c1.708,-1.542 2.776,-3.343 2.613,-5.858c-0.31,-4.777 0.301,-9.433 2.802,-13.658c0.399,-0.675 0.919,-1.284 1.435,-1.878c0.177,-0.204 0.559,-0.422 0.769,-0.362c0.383,0.111 0.562,0.476 0.571,0.935c0.04,1.968 -0.174,3.916 -0.737,5.787c-0.893,2.967 -1.916,5.896 -2.897,8.836c-0.213,0.641 -0.579,1.246 -0.699,1.899c-0.312,1.705 0.328,3.242 1.111,4.691c0.409,0.755 1.247,0.609 1.777,0.055c1.424,-1.491 2.552,-3.21 3.587,-4.988c0.093,-0.159 0.132,-0.349 0.196,-0.525c-0.185,-0.044 -0.375,-0.143 -0.552,-0.123c-0.701,0.079 -1.395,0.232 -2.097,0.279c-0.295,0.02 -0.827,-0.1 -0.866,-0.254c-0.123,-0.489 0.398,-0.563 0.714,-0.65c0.788,-0.216 1.593,-0.391 2.401,-0.515c0.761,-0.117 1.108,-0.57 1.281,-1.262c0.137,-0.548 0.313,-1.086 0.493,-1.621c0.081,-0.239 0.16,-0.528 0.338,-0.674c0.277,-0.228 0.638,-0.353 0.963,-0.522c0.098,0.326 0.32,0.673 0.267,0.972c-0.103,0.575 -0.351,1.127 -0.559,1.681c-0.251,0.67 -0.156,0.844 0.531,0.772c2.275,-0.239 4.547,-0.509 6.823,-0.743c0.405,-0.041 0.822,0.037 1.233,0.06c-0.383,0.166 -0.752,0.404 -1.152,0.484c-2.436,0.487 -4.882,0.929 -7.321,1.406c-0.863,0.169 -1.043,0.341 -0.992,1.18c0.079,1.292 0.26,2.578 0.386,3.867c0.06,0.613 0.36,0.985 0.976,1.106c0.118,0.024 0.316,0.178 0.304,0.221c-0.043,0.147 -0.135,0.315 -0.26,0.396c-0.496,0.326 -1.336,0.05 -1.606,-0.636c-0.286,-0.727 -0.397,-1.522 -0.605,-2.281c-0.127,-0.462 -0.294,-0.914 -0.443,-1.371c-0.298,0.359 -0.6,0.715 -0.893,1.079c-0.725,0.899 -1.436,1.811 -2.175,2.699c-0.214,0.257 -0.486,0.476 -0.762,0.669c-1.129,0.787 -2.272,0.546 -2.935,-0.653c-0.326,-0.588 -0.542,-1.237 -0.824,-1.85c-0.281,-0.612 -0.346,-0.599 -0.765,-0.088c-0.573,0.696 -1.124,1.425 -1.783,2.033c-1.577,1.453 -3.644,0.887 -4.253,-1.169c-0.255,-0.859 -0.308,-1.776 -0.471,-2.664c-0.038,-0.202 -0.154,-0.389 -0.235,-0.583c-0.159,0.096 -0.361,0.158 -0.473,0.293c-0.872,1.064 -1.82,2.084 -2.55,3.24c-0.4,0.635 -0.47,1.499 -0.608,2.274c-0.404,2.274 -1.415,4.27 -2.732,6.128c-0.299,0.423 -0.608,0.944 -1.273,0.795c-0.549,-0.123 -0.974,-0.777 -0.958,-1.543c0.032,-1.5 0.108,-2.998 0.165,-4.497c0.02,0.001 0.04,0.002 0.061,0.003c0.054,-1.413 0.112,-2.827 0.157,-4.24zM92.4802,184.201c-0.468,-0.945 -0.859,-1.011 -1.51,-0.166c-1.046,1.36 -1.992,2.798 -3.074,4.127c-1.16,1.425 -2.11,2.968 -2.933,4.596c-0.624,1.234 -1.223,2.482 -1.19,3.92c0.019,0.802 0.456,1.245 1.225,1.133c0.464,-0.068 0.951,-0.179 1.359,-0.4c1.408,-0.761 2.772,-1.568 3.838,-2.833c1.575,-1.868 2.698,-3.909 2.95,-6.144c0.148,-1.624 -0.039,-2.965 -0.665,-4.233zM90.2462,179.149c0.459,0.67 0.689,0.686 1.235,0.096c0.575,-0.621 1.143,-1.247 1.71,-1.874c1.344,-1.483 2.694,-2.961 4.02,-4.461c0.166,-0.187 0.203,-0.488 0.3,-0.736c-0.246,-0.09 -0.516,-0.298 -0.733,-0.252c-2.249,0.474 -4.386,1.234 -6.255,2.622c-0.671,0.498 -1.043,1.162 -1.121,1.772c-0.007,1.182 0.305,2.047 0.844,2.833zM128.1052,184.282c0,0.098 0.127,0.23 0.228,0.28c0.053,0.027 0.212,-0.066 0.263,-0.144c0.09,-0.138 0.14,-0.304 0.197,-0.462c0.453,-1.24 0.93,-2.472 1.348,-3.724c0.722,-2.161 1.505,-4.312 1.593,-6.625c0.014,-0.364 -0.047,-0.73 -0.073,-1.095c-0.274,0.283 -0.609,0.529 -0.815,0.856c-1.756,2.79 -2.436,5.903 -2.684,9.139c-0.023,0.591 -0.057,1.183 -0.057,1.775zM116.0602,188.959c-0.039,-0.142 -0.168,-0.26 -0.257,-0.388c-0.14,0.121 -0.35,0.216 -0.407,0.368c-0.155,0.418 -0.276,0.855 -0.354,1.294c-0.11,0.62 0.163,1.217 0.53,1.263c0.402,0.05 0.712,-0.421 0.759,-1.367c-0.056,-0.246 -0.146,-0.712 -0.271,-1.17zM114.3992,182.126c0.144,-0.175 0.349,-0.329 0.42,-0.531c0.159,-0.448 0.267,-0.917 0.367,-1.384c0.383,-1.786 0.759,-3.573 1.119,-5.364c0.031,-0.159 -0.08,-0.346 -0.125,-0.52c-0.107,0.146 -0.271,0.276 -0.313,0.438c-0.574,2.23 -1.132,4.464 -1.664,6.58c0.092,0.367 0.144,0.574 0.196,0.781z" fill="#ffffff" fill-opacity="1"></path></g></g></svg>