<?xml version="1.0" encoding="UTF-8"?>
<svg id="SVGDoc" width="306" height="594" xmlns="http://www.w3.org/2000/svg" version="1.1" xmlns:xlink="http://www.w3.org/1999/xlink" xmlns:avocode="https://avocode.com/" viewBox="0 0 306 594"><defs></defs><desc>Generated with Avocode.</desc><g><g><title>&amp;lt;Path&amp;gt;</title><path d="M186.5842,544.079c0,-5.124 -4.153,-9.277 -9.277,-9.277c-5.124,0 -9.277,4.153 -9.277,9.277c0,5.124 4.153,9.277 9.277,9.277c0.054,0 0.109,0 0.163,-0.004v-7.218v0h-1.993v0v-2.323v0h1.993v0v-1.711c0,-1.982 1.21,-3.062 2.979,-3.062c0.848,0 1.576,0.062 1.786,0.091v2.073v0h-1.217c-0.96,0 -1.149,0.456 -1.149,1.127v1.478v0h2.301v0l-0.301,2.323v0h-2v0v6.867c3.878,-1.112 6.715,-4.682 6.715,-8.918z" fill="#66ccce" fill-opacity="1"></path></g></g></svg>