<?xml version="1.0" encoding="UTF-8"?>
<svg id="SVGDoc" width="306" height="594" xmlns="http://www.w3.org/2000/svg" version="1.1" xmlns:xlink="http://www.w3.org/1999/xlink" xmlns:avocode="https://avocode.com/" viewBox="0 0 306 594"><defs></defs><desc>Generated with Avocode.</desc><g><g><title>&amp;lt;Path&amp;gt;</title><path d="M164.3266,537.8104c-0.752,0.33 -1.553,0.548 -2.388,0.655c0.859,-0.513 1.515,-1.32 1.823,-2.291c-0.801,0.477 -1.685,0.815 -2.628,1.003c-0.761,-0.81 -1.845,-1.312 -3.028,-1.312c-2.294,0 -4.141,1.863 -4.141,4.146c0,0.329 0.027,0.645 0.096,0.945c-3.446,-0.168 -6.495,-1.819 -8.543,-4.335c-0.358,0.62 -0.568,1.331 -0.568,2.095c0,1.435 0.739,2.708 1.841,3.444c-0.666,-0.012 -1.319,-0.206 -1.872,-0.51v0.045c0,2.015 1.436,3.688 3.32,4.073c-0.337,0.092 -0.705,0.136 -1.086,0.136c-0.266,0 -0.534,-0.015 -0.785,-0.07c0.537,1.641 2.061,2.848 3.873,2.887c-1.41,1.103 -3.201,1.768 -5.139,1.768c-0.34,0 -0.666,-0.016 -0.992,-0.057c1.836,1.184 4.012,1.86 6.358,1.86c7.627,0 11.797,-6.318 11.797,-11.794c0,-0.184 -0.006,-0.361 -0.015,-0.536c0.822,-0.584 1.513,-1.313 2.077,-2.152z" fill="#66ccce" fill-opacity="1"></path></g></g></svg>